G04 EAGLE Gerber RS-274X export*
G75*
%MOMM*%
%FSLAX34Y34*%
%LPD*%
%INBottom Copper*%
%IPPOS*%
%AMOC8*
5,1,8,0,0,1.08239X$1,22.5*%
G01*
%ADD10R,1.508000X1.508000*%
%ADD11C,1.508000*%
%ADD12C,1.778000*%
%ADD13C,1.524000*%
%ADD14R,1.778000X1.778000*%
%ADD15C,2.032000*%
%ADD16C,1.397000*%
%ADD17P,1.429621X8X292.500000*%
%ADD18P,1.429621X8X112.500000*%
%ADD19P,1.429621X8X202.500000*%
%ADD20P,1.429621X8X22.500000*%
%ADD21C,0.254000*%
%ADD22C,0.756400*%
%ADD23C,0.406400*%

G36*
X460840Y10178D02*
X460840Y10178D01*
X460978Y10191D01*
X460997Y10198D01*
X461017Y10201D01*
X461147Y10252D01*
X461278Y10299D01*
X461294Y10310D01*
X461313Y10318D01*
X461426Y10399D01*
X461541Y10477D01*
X461554Y10493D01*
X461570Y10504D01*
X461659Y10612D01*
X461751Y10716D01*
X461760Y10734D01*
X461773Y10749D01*
X461832Y10875D01*
X461896Y10999D01*
X461900Y11019D01*
X461909Y11037D01*
X461935Y11174D01*
X461965Y11309D01*
X461965Y11330D01*
X461969Y11349D01*
X461960Y11488D01*
X461956Y11627D01*
X461950Y11647D01*
X461949Y11667D01*
X461906Y11799D01*
X461867Y11933D01*
X461857Y11950D01*
X461851Y11969D01*
X461777Y12087D01*
X461706Y12207D01*
X461687Y12228D01*
X461681Y12238D01*
X461666Y12252D01*
X461599Y12328D01*
X461517Y12410D01*
X461182Y12989D01*
X461009Y13636D01*
X461009Y20321D01*
X471170Y20321D01*
X471288Y20336D01*
X471407Y20343D01*
X471445Y20356D01*
X471485Y20361D01*
X471596Y20404D01*
X471709Y20441D01*
X471743Y20463D01*
X471781Y20478D01*
X471877Y20548D01*
X471978Y20611D01*
X472006Y20641D01*
X472038Y20664D01*
X472114Y20756D01*
X472196Y20843D01*
X472215Y20878D01*
X472241Y20909D01*
X472292Y21017D01*
X472349Y21121D01*
X472360Y21161D01*
X472377Y21197D01*
X472399Y21314D01*
X472429Y21429D01*
X472433Y21490D01*
X472437Y21510D01*
X472435Y21530D01*
X472439Y21590D01*
X472439Y22861D01*
X472441Y22861D01*
X472441Y21590D01*
X472456Y21472D01*
X472463Y21353D01*
X472476Y21315D01*
X472481Y21274D01*
X472525Y21164D01*
X472561Y21051D01*
X472583Y21016D01*
X472598Y20979D01*
X472668Y20883D01*
X472731Y20782D01*
X472761Y20754D01*
X472785Y20721D01*
X472876Y20646D01*
X472963Y20564D01*
X472998Y20544D01*
X473030Y20519D01*
X473137Y20468D01*
X473242Y20410D01*
X473281Y20400D01*
X473317Y20383D01*
X473434Y20361D01*
X473549Y20331D01*
X473610Y20327D01*
X473630Y20323D01*
X473650Y20325D01*
X473710Y20321D01*
X483871Y20321D01*
X483871Y13636D01*
X483698Y12989D01*
X483363Y12410D01*
X483281Y12328D01*
X483195Y12218D01*
X483107Y12111D01*
X483098Y12092D01*
X483086Y12076D01*
X483030Y11948D01*
X482971Y11823D01*
X482967Y11803D01*
X482959Y11784D01*
X482937Y11647D01*
X482911Y11510D01*
X482913Y11490D01*
X482909Y11470D01*
X482922Y11332D01*
X482931Y11193D01*
X482937Y11174D01*
X482939Y11154D01*
X482986Y11023D01*
X483029Y10891D01*
X483040Y10873D01*
X483047Y10854D01*
X483125Y10740D01*
X483199Y10622D01*
X483214Y10608D01*
X483225Y10591D01*
X483330Y10499D01*
X483431Y10404D01*
X483449Y10394D01*
X483464Y10381D01*
X483588Y10317D01*
X483709Y10250D01*
X483729Y10245D01*
X483747Y10236D01*
X483883Y10206D01*
X484017Y10171D01*
X484045Y10169D01*
X484057Y10166D01*
X484078Y10167D01*
X484178Y10161D01*
X488570Y10161D01*
X488688Y10176D01*
X488807Y10183D01*
X488845Y10196D01*
X488886Y10201D01*
X488996Y10244D01*
X489109Y10281D01*
X489144Y10303D01*
X489181Y10318D01*
X489277Y10387D01*
X489378Y10451D01*
X489406Y10481D01*
X489439Y10504D01*
X489515Y10596D01*
X489596Y10683D01*
X489616Y10718D01*
X489641Y10749D01*
X489692Y10857D01*
X489750Y10961D01*
X489760Y11001D01*
X489777Y11037D01*
X489799Y11154D01*
X489829Y11269D01*
X489833Y11329D01*
X489837Y11349D01*
X489835Y11370D01*
X489839Y11430D01*
X489839Y136720D01*
X489824Y136839D01*
X489817Y136958D01*
X489804Y136996D01*
X489799Y137036D01*
X489756Y137147D01*
X489719Y137260D01*
X489697Y137294D01*
X489682Y137332D01*
X489612Y137428D01*
X489548Y137529D01*
X489519Y137556D01*
X489496Y137589D01*
X489404Y137665D01*
X489317Y137747D01*
X489281Y137766D01*
X489251Y137792D01*
X489142Y137843D01*
X489038Y137900D01*
X488999Y137910D01*
X488963Y137927D01*
X488846Y137950D01*
X488730Y137979D01*
X488690Y137979D01*
X488651Y137987D01*
X488531Y137980D01*
X488412Y137980D01*
X488373Y137970D01*
X488333Y137967D01*
X488220Y137930D01*
X488104Y137901D01*
X488069Y137882D01*
X488031Y137869D01*
X487930Y137805D01*
X487825Y137748D01*
X487796Y137721D01*
X487762Y137699D01*
X487680Y137612D01*
X487593Y137530D01*
X487571Y137497D01*
X487544Y137467D01*
X487486Y137363D01*
X487422Y137262D01*
X487400Y137207D01*
X487390Y137189D01*
X487385Y137169D01*
X487363Y137113D01*
X486936Y135800D01*
X486210Y134375D01*
X485270Y133081D01*
X484139Y131950D01*
X482845Y131010D01*
X481420Y130284D01*
X479899Y129789D01*
X478320Y129539D01*
X472439Y129539D01*
X472439Y138430D01*
X472424Y138548D01*
X472417Y138667D01*
X472404Y138705D01*
X472399Y138745D01*
X472356Y138856D01*
X472319Y138969D01*
X472297Y139003D01*
X472282Y139041D01*
X472212Y139137D01*
X472149Y139238D01*
X472119Y139266D01*
X472095Y139298D01*
X472004Y139374D01*
X471917Y139456D01*
X471882Y139475D01*
X471851Y139501D01*
X471743Y139552D01*
X471639Y139609D01*
X471599Y139620D01*
X471563Y139637D01*
X471446Y139659D01*
X471331Y139689D01*
X471270Y139693D01*
X471250Y139697D01*
X471230Y139695D01*
X471170Y139699D01*
X469899Y139699D01*
X469899Y139701D01*
X471170Y139701D01*
X471288Y139716D01*
X471407Y139723D01*
X471445Y139736D01*
X471485Y139741D01*
X471596Y139785D01*
X471709Y139821D01*
X471744Y139843D01*
X471781Y139858D01*
X471877Y139928D01*
X471978Y139991D01*
X472006Y140021D01*
X472039Y140045D01*
X472114Y140136D01*
X472196Y140223D01*
X472216Y140258D01*
X472241Y140290D01*
X472292Y140397D01*
X472350Y140502D01*
X472360Y140541D01*
X472377Y140577D01*
X472399Y140694D01*
X472429Y140809D01*
X472433Y140870D01*
X472437Y140890D01*
X472435Y140910D01*
X472439Y140970D01*
X472439Y149861D01*
X478320Y149861D01*
X479899Y149611D01*
X481420Y149116D01*
X482845Y148390D01*
X484139Y147450D01*
X485270Y146319D01*
X486210Y145025D01*
X486936Y143600D01*
X487363Y142287D01*
X487414Y142179D01*
X487458Y142068D01*
X487481Y142036D01*
X487498Y142000D01*
X487574Y141908D01*
X487644Y141811D01*
X487675Y141786D01*
X487701Y141755D01*
X487798Y141684D01*
X487889Y141608D01*
X487926Y141591D01*
X487958Y141568D01*
X488070Y141524D01*
X488177Y141473D01*
X488216Y141465D01*
X488254Y141450D01*
X488373Y141435D01*
X488490Y141413D01*
X488529Y141416D01*
X488569Y141410D01*
X488688Y141425D01*
X488807Y141433D01*
X488845Y141445D01*
X488885Y141450D01*
X488996Y141494D01*
X489109Y141531D01*
X489143Y141552D01*
X489181Y141567D01*
X489277Y141637D01*
X489378Y141701D01*
X489406Y141730D01*
X489438Y141754D01*
X489514Y141846D01*
X489596Y141933D01*
X489615Y141968D01*
X489641Y141999D01*
X489692Y142107D01*
X489750Y142211D01*
X489760Y142250D01*
X489777Y142286D01*
X489799Y142404D01*
X489829Y142519D01*
X489833Y142578D01*
X489837Y142599D01*
X489835Y142619D01*
X489839Y142680D01*
X489839Y488570D01*
X489824Y488688D01*
X489817Y488807D01*
X489804Y488845D01*
X489799Y488886D01*
X489756Y488996D01*
X489719Y489109D01*
X489697Y489144D01*
X489682Y489181D01*
X489613Y489277D01*
X489549Y489378D01*
X489519Y489406D01*
X489496Y489439D01*
X489404Y489515D01*
X489317Y489596D01*
X489282Y489616D01*
X489251Y489641D01*
X489143Y489692D01*
X489039Y489750D01*
X488999Y489760D01*
X488963Y489777D01*
X488846Y489799D01*
X488731Y489829D01*
X488671Y489833D01*
X488651Y489837D01*
X488630Y489835D01*
X488570Y489839D01*
X256980Y489839D01*
X256861Y489824D01*
X256742Y489817D01*
X256704Y489804D01*
X256664Y489799D01*
X256553Y489756D01*
X256440Y489719D01*
X256406Y489697D01*
X256368Y489682D01*
X256272Y489612D01*
X256171Y489548D01*
X256144Y489519D01*
X256111Y489496D01*
X256035Y489404D01*
X255953Y489317D01*
X255934Y489281D01*
X255908Y489251D01*
X255857Y489142D01*
X255800Y489038D01*
X255790Y488999D01*
X255773Y488963D01*
X255750Y488846D01*
X255721Y488730D01*
X255721Y488690D01*
X255713Y488651D01*
X255720Y488531D01*
X255720Y488412D01*
X255730Y488373D01*
X255733Y488333D01*
X255770Y488220D01*
X255799Y488104D01*
X255818Y488069D01*
X255831Y488031D01*
X255895Y487930D01*
X255952Y487825D01*
X255979Y487796D01*
X256001Y487762D01*
X256088Y487680D01*
X256170Y487593D01*
X256203Y487571D01*
X256233Y487544D01*
X256337Y487486D01*
X256438Y487422D01*
X256493Y487400D01*
X256511Y487390D01*
X256531Y487385D01*
X256587Y487363D01*
X257900Y486936D01*
X259325Y486210D01*
X260619Y485270D01*
X261750Y484139D01*
X262690Y482845D01*
X263416Y481420D01*
X263911Y479899D01*
X264161Y478320D01*
X264161Y472439D01*
X255270Y472439D01*
X255152Y472424D01*
X255033Y472417D01*
X254995Y472404D01*
X254955Y472399D01*
X254844Y472356D01*
X254731Y472319D01*
X254697Y472297D01*
X254659Y472282D01*
X254563Y472212D01*
X254462Y472149D01*
X254434Y472119D01*
X254402Y472095D01*
X254326Y472004D01*
X254244Y471917D01*
X254225Y471882D01*
X254199Y471851D01*
X254148Y471743D01*
X254091Y471639D01*
X254080Y471599D01*
X254063Y471563D01*
X254041Y471446D01*
X254011Y471331D01*
X254007Y471270D01*
X254003Y471250D01*
X254005Y471230D01*
X254001Y471170D01*
X254001Y469899D01*
X253999Y469899D01*
X253999Y471170D01*
X253984Y471288D01*
X253977Y471407D01*
X253964Y471445D01*
X253959Y471485D01*
X253915Y471596D01*
X253879Y471709D01*
X253857Y471744D01*
X253842Y471781D01*
X253772Y471877D01*
X253709Y471978D01*
X253679Y472006D01*
X253655Y472039D01*
X253564Y472114D01*
X253477Y472196D01*
X253442Y472216D01*
X253410Y472241D01*
X253303Y472292D01*
X253198Y472350D01*
X253159Y472360D01*
X253123Y472377D01*
X253006Y472399D01*
X252891Y472429D01*
X252830Y472433D01*
X252810Y472437D01*
X252790Y472435D01*
X252730Y472439D01*
X243839Y472439D01*
X243839Y478320D01*
X244089Y479899D01*
X244584Y481420D01*
X245310Y482845D01*
X246250Y484139D01*
X247381Y485270D01*
X248675Y486210D01*
X250100Y486936D01*
X251413Y487363D01*
X251521Y487414D01*
X251632Y487458D01*
X251664Y487481D01*
X251700Y487498D01*
X251792Y487574D01*
X251889Y487644D01*
X251914Y487675D01*
X251945Y487701D01*
X252016Y487798D01*
X252092Y487889D01*
X252109Y487926D01*
X252132Y487958D01*
X252176Y488070D01*
X252227Y488177D01*
X252235Y488216D01*
X252250Y488254D01*
X252265Y488373D01*
X252287Y488490D01*
X252284Y488529D01*
X252290Y488569D01*
X252275Y488688D01*
X252267Y488807D01*
X252255Y488845D01*
X252250Y488885D01*
X252206Y488996D01*
X252169Y489109D01*
X252148Y489143D01*
X252133Y489181D01*
X252063Y489277D01*
X251999Y489378D01*
X251970Y489406D01*
X251946Y489438D01*
X251854Y489514D01*
X251767Y489596D01*
X251732Y489615D01*
X251701Y489641D01*
X251593Y489692D01*
X251489Y489750D01*
X251450Y489760D01*
X251414Y489777D01*
X251296Y489799D01*
X251181Y489829D01*
X251122Y489833D01*
X251101Y489837D01*
X251081Y489835D01*
X251020Y489839D01*
X11430Y489839D01*
X11312Y489824D01*
X11193Y489817D01*
X11155Y489804D01*
X11114Y489799D01*
X11004Y489756D01*
X10891Y489719D01*
X10856Y489697D01*
X10819Y489682D01*
X10723Y489613D01*
X10622Y489549D01*
X10594Y489519D01*
X10561Y489496D01*
X10485Y489404D01*
X10404Y489317D01*
X10384Y489282D01*
X10359Y489251D01*
X10308Y489143D01*
X10250Y489039D01*
X10240Y488999D01*
X10223Y488963D01*
X10201Y488846D01*
X10171Y488731D01*
X10167Y488671D01*
X10163Y488651D01*
X10165Y488630D01*
X10161Y488570D01*
X10161Y376678D01*
X10178Y376540D01*
X10191Y376401D01*
X10198Y376382D01*
X10201Y376362D01*
X10252Y376233D01*
X10299Y376102D01*
X10310Y376085D01*
X10318Y376066D01*
X10399Y375954D01*
X10477Y375839D01*
X10493Y375825D01*
X10504Y375809D01*
X10611Y375720D01*
X10716Y375628D01*
X10734Y375619D01*
X10749Y375606D01*
X10875Y375547D01*
X10999Y375484D01*
X11019Y375479D01*
X11037Y375471D01*
X11173Y375445D01*
X11309Y375414D01*
X11330Y375415D01*
X11349Y375411D01*
X11488Y375420D01*
X11627Y375424D01*
X11647Y375429D01*
X11667Y375431D01*
X11799Y375473D01*
X11933Y375512D01*
X11950Y375522D01*
X11969Y375529D01*
X12087Y375603D01*
X12207Y375674D01*
X12228Y375692D01*
X12238Y375699D01*
X12252Y375714D01*
X12328Y375780D01*
X12600Y376053D01*
X15961Y377445D01*
X34839Y377445D01*
X38200Y376053D01*
X40773Y373480D01*
X42165Y370119D01*
X42165Y366481D01*
X40773Y363120D01*
X38200Y360547D01*
X34839Y359155D01*
X15961Y359155D01*
X12600Y360547D01*
X12328Y360820D01*
X12218Y360905D01*
X12111Y360994D01*
X12092Y361002D01*
X12076Y361015D01*
X11949Y361070D01*
X11823Y361129D01*
X11803Y361133D01*
X11784Y361141D01*
X11647Y361163D01*
X11510Y361189D01*
X11490Y361188D01*
X11470Y361191D01*
X11331Y361178D01*
X11193Y361169D01*
X11174Y361163D01*
X11154Y361161D01*
X11022Y361114D01*
X10891Y361071D01*
X10874Y361061D01*
X10854Y361054D01*
X10739Y360976D01*
X10622Y360901D01*
X10608Y360886D01*
X10591Y360875D01*
X10499Y360771D01*
X10404Y360670D01*
X10394Y360652D01*
X10381Y360637D01*
X10317Y360513D01*
X10250Y360391D01*
X10245Y360372D01*
X10236Y360353D01*
X10206Y360217D01*
X10171Y360083D01*
X10169Y360055D01*
X10166Y360043D01*
X10167Y360023D01*
X10161Y359922D01*
X10161Y351278D01*
X10178Y351140D01*
X10191Y351001D01*
X10198Y350982D01*
X10201Y350962D01*
X10252Y350833D01*
X10299Y350702D01*
X10310Y350685D01*
X10318Y350666D01*
X10399Y350554D01*
X10477Y350439D01*
X10493Y350425D01*
X10504Y350409D01*
X10611Y350320D01*
X10716Y350228D01*
X10734Y350219D01*
X10749Y350206D01*
X10875Y350147D01*
X10999Y350084D01*
X11019Y350079D01*
X11037Y350071D01*
X11173Y350045D01*
X11309Y350014D01*
X11330Y350015D01*
X11349Y350011D01*
X11488Y350020D01*
X11627Y350024D01*
X11647Y350029D01*
X11667Y350031D01*
X11799Y350073D01*
X11933Y350112D01*
X11950Y350122D01*
X11969Y350129D01*
X12087Y350203D01*
X12207Y350274D01*
X12228Y350292D01*
X12238Y350299D01*
X12252Y350314D01*
X12328Y350380D01*
X12600Y350653D01*
X15961Y352045D01*
X34839Y352045D01*
X38200Y350653D01*
X40773Y348080D01*
X42165Y344719D01*
X42165Y341081D01*
X40773Y337720D01*
X38200Y335147D01*
X34839Y333755D01*
X15961Y333755D01*
X12600Y335147D01*
X12328Y335420D01*
X12218Y335505D01*
X12111Y335594D01*
X12092Y335602D01*
X12076Y335615D01*
X11949Y335670D01*
X11823Y335729D01*
X11803Y335733D01*
X11784Y335741D01*
X11647Y335763D01*
X11510Y335789D01*
X11490Y335788D01*
X11470Y335791D01*
X11331Y335778D01*
X11193Y335769D01*
X11174Y335763D01*
X11154Y335761D01*
X11022Y335714D01*
X10891Y335671D01*
X10874Y335661D01*
X10854Y335654D01*
X10739Y335576D01*
X10622Y335501D01*
X10608Y335486D01*
X10591Y335475D01*
X10499Y335371D01*
X10404Y335270D01*
X10394Y335252D01*
X10381Y335237D01*
X10317Y335113D01*
X10250Y334991D01*
X10245Y334972D01*
X10236Y334953D01*
X10206Y334817D01*
X10171Y334683D01*
X10169Y334655D01*
X10166Y334643D01*
X10167Y334623D01*
X10161Y334522D01*
X10161Y325878D01*
X10178Y325740D01*
X10191Y325601D01*
X10198Y325582D01*
X10201Y325562D01*
X10252Y325433D01*
X10299Y325302D01*
X10310Y325285D01*
X10318Y325266D01*
X10399Y325154D01*
X10477Y325039D01*
X10493Y325025D01*
X10504Y325009D01*
X10611Y324920D01*
X10716Y324828D01*
X10734Y324819D01*
X10749Y324806D01*
X10875Y324747D01*
X10999Y324684D01*
X11019Y324679D01*
X11037Y324671D01*
X11173Y324645D01*
X11309Y324614D01*
X11330Y324615D01*
X11349Y324611D01*
X11488Y324620D01*
X11627Y324624D01*
X11647Y324629D01*
X11667Y324631D01*
X11799Y324673D01*
X11933Y324712D01*
X11950Y324722D01*
X11969Y324729D01*
X12087Y324803D01*
X12207Y324874D01*
X12228Y324892D01*
X12238Y324899D01*
X12252Y324914D01*
X12328Y324980D01*
X12600Y325253D01*
X15961Y326645D01*
X34839Y326645D01*
X38200Y325253D01*
X40773Y322680D01*
X42165Y319319D01*
X42165Y315681D01*
X40773Y312320D01*
X38200Y309747D01*
X34839Y308355D01*
X15961Y308355D01*
X12600Y309747D01*
X12328Y310020D01*
X12218Y310105D01*
X12111Y310194D01*
X12092Y310202D01*
X12076Y310215D01*
X11949Y310270D01*
X11823Y310329D01*
X11803Y310333D01*
X11784Y310341D01*
X11647Y310363D01*
X11510Y310389D01*
X11490Y310388D01*
X11470Y310391D01*
X11331Y310378D01*
X11193Y310369D01*
X11174Y310363D01*
X11154Y310361D01*
X11022Y310314D01*
X10891Y310271D01*
X10874Y310261D01*
X10854Y310254D01*
X10739Y310176D01*
X10622Y310101D01*
X10608Y310086D01*
X10591Y310075D01*
X10499Y309971D01*
X10404Y309870D01*
X10394Y309852D01*
X10381Y309837D01*
X10317Y309713D01*
X10250Y309591D01*
X10245Y309572D01*
X10236Y309553D01*
X10206Y309417D01*
X10171Y309283D01*
X10169Y309255D01*
X10166Y309243D01*
X10167Y309223D01*
X10161Y309122D01*
X10161Y300478D01*
X10178Y300340D01*
X10191Y300201D01*
X10198Y300182D01*
X10201Y300162D01*
X10252Y300033D01*
X10299Y299902D01*
X10310Y299885D01*
X10318Y299866D01*
X10399Y299754D01*
X10477Y299639D01*
X10493Y299625D01*
X10504Y299609D01*
X10611Y299520D01*
X10716Y299428D01*
X10734Y299419D01*
X10749Y299406D01*
X10875Y299347D01*
X10999Y299284D01*
X11019Y299279D01*
X11037Y299271D01*
X11173Y299245D01*
X11309Y299214D01*
X11330Y299215D01*
X11349Y299211D01*
X11488Y299220D01*
X11627Y299224D01*
X11647Y299229D01*
X11667Y299231D01*
X11799Y299273D01*
X11933Y299312D01*
X11950Y299322D01*
X11969Y299329D01*
X12087Y299403D01*
X12207Y299474D01*
X12228Y299492D01*
X12238Y299499D01*
X12252Y299514D01*
X12328Y299580D01*
X12600Y299853D01*
X15961Y301245D01*
X34839Y301245D01*
X38200Y299853D01*
X40773Y297280D01*
X42165Y293919D01*
X42165Y290281D01*
X40773Y286920D01*
X38200Y284347D01*
X34839Y282955D01*
X15961Y282955D01*
X12600Y284347D01*
X12328Y284620D01*
X12218Y284705D01*
X12111Y284794D01*
X12092Y284802D01*
X12076Y284815D01*
X11949Y284870D01*
X11823Y284929D01*
X11803Y284933D01*
X11784Y284941D01*
X11647Y284963D01*
X11510Y284989D01*
X11490Y284988D01*
X11470Y284991D01*
X11331Y284978D01*
X11193Y284969D01*
X11174Y284963D01*
X11154Y284961D01*
X11022Y284914D01*
X10891Y284871D01*
X10874Y284861D01*
X10854Y284854D01*
X10739Y284776D01*
X10622Y284701D01*
X10608Y284686D01*
X10591Y284675D01*
X10499Y284571D01*
X10404Y284470D01*
X10394Y284452D01*
X10381Y284437D01*
X10317Y284313D01*
X10250Y284191D01*
X10245Y284172D01*
X10236Y284153D01*
X10206Y284017D01*
X10171Y283883D01*
X10169Y283855D01*
X10166Y283843D01*
X10167Y283823D01*
X10161Y283722D01*
X10161Y275078D01*
X10178Y274940D01*
X10191Y274801D01*
X10198Y274782D01*
X10201Y274762D01*
X10252Y274633D01*
X10299Y274502D01*
X10310Y274485D01*
X10318Y274466D01*
X10399Y274354D01*
X10477Y274239D01*
X10493Y274225D01*
X10504Y274209D01*
X10611Y274120D01*
X10716Y274028D01*
X10734Y274019D01*
X10749Y274006D01*
X10875Y273947D01*
X10999Y273884D01*
X11019Y273879D01*
X11037Y273871D01*
X11173Y273845D01*
X11309Y273814D01*
X11330Y273815D01*
X11349Y273811D01*
X11488Y273820D01*
X11627Y273824D01*
X11647Y273829D01*
X11667Y273831D01*
X11799Y273873D01*
X11933Y273912D01*
X11950Y273922D01*
X11969Y273929D01*
X12087Y274003D01*
X12207Y274074D01*
X12228Y274092D01*
X12238Y274099D01*
X12252Y274114D01*
X12328Y274180D01*
X12600Y274453D01*
X15961Y275845D01*
X34839Y275845D01*
X38200Y274453D01*
X40773Y271880D01*
X42165Y268519D01*
X42165Y264881D01*
X40773Y261520D01*
X38200Y258947D01*
X34839Y257555D01*
X15961Y257555D01*
X12600Y258947D01*
X12328Y259220D01*
X12218Y259305D01*
X12111Y259394D01*
X12092Y259402D01*
X12076Y259415D01*
X11949Y259470D01*
X11823Y259529D01*
X11803Y259533D01*
X11784Y259541D01*
X11647Y259563D01*
X11510Y259589D01*
X11490Y259588D01*
X11470Y259591D01*
X11331Y259578D01*
X11193Y259569D01*
X11174Y259563D01*
X11154Y259561D01*
X11022Y259514D01*
X10891Y259471D01*
X10874Y259461D01*
X10854Y259454D01*
X10739Y259376D01*
X10622Y259301D01*
X10608Y259286D01*
X10591Y259275D01*
X10499Y259171D01*
X10404Y259070D01*
X10394Y259052D01*
X10381Y259037D01*
X10317Y258913D01*
X10250Y258791D01*
X10245Y258772D01*
X10236Y258753D01*
X10206Y258617D01*
X10171Y258483D01*
X10169Y258455D01*
X10166Y258443D01*
X10167Y258423D01*
X10161Y258322D01*
X10161Y249678D01*
X10178Y249540D01*
X10191Y249401D01*
X10198Y249382D01*
X10201Y249362D01*
X10252Y249233D01*
X10299Y249102D01*
X10310Y249085D01*
X10318Y249066D01*
X10399Y248954D01*
X10477Y248839D01*
X10493Y248825D01*
X10504Y248809D01*
X10611Y248720D01*
X10716Y248628D01*
X10734Y248619D01*
X10749Y248606D01*
X10875Y248547D01*
X10999Y248484D01*
X11019Y248479D01*
X11037Y248471D01*
X11173Y248445D01*
X11309Y248414D01*
X11330Y248415D01*
X11349Y248411D01*
X11488Y248420D01*
X11627Y248424D01*
X11647Y248429D01*
X11667Y248431D01*
X11799Y248473D01*
X11933Y248512D01*
X11950Y248522D01*
X11969Y248529D01*
X12087Y248603D01*
X12207Y248674D01*
X12228Y248692D01*
X12238Y248699D01*
X12252Y248714D01*
X12328Y248780D01*
X12600Y249053D01*
X15961Y250445D01*
X34839Y250445D01*
X38200Y249053D01*
X40773Y246480D01*
X42165Y243119D01*
X42165Y239481D01*
X40773Y236120D01*
X38200Y233547D01*
X34839Y232155D01*
X15961Y232155D01*
X12600Y233547D01*
X12328Y233820D01*
X12218Y233905D01*
X12111Y233994D01*
X12092Y234002D01*
X12076Y234015D01*
X11949Y234070D01*
X11823Y234129D01*
X11803Y234133D01*
X11784Y234141D01*
X11647Y234163D01*
X11510Y234189D01*
X11490Y234188D01*
X11470Y234191D01*
X11331Y234178D01*
X11193Y234169D01*
X11174Y234163D01*
X11154Y234161D01*
X11022Y234114D01*
X10891Y234071D01*
X10874Y234061D01*
X10854Y234054D01*
X10739Y233976D01*
X10622Y233901D01*
X10608Y233886D01*
X10591Y233875D01*
X10499Y233771D01*
X10404Y233670D01*
X10394Y233652D01*
X10381Y233637D01*
X10317Y233513D01*
X10250Y233391D01*
X10245Y233372D01*
X10236Y233353D01*
X10206Y233217D01*
X10171Y233083D01*
X10169Y233055D01*
X10166Y233043D01*
X10167Y233023D01*
X10161Y232922D01*
X10161Y224278D01*
X10178Y224140D01*
X10191Y224001D01*
X10198Y223982D01*
X10201Y223962D01*
X10252Y223833D01*
X10299Y223702D01*
X10310Y223685D01*
X10318Y223666D01*
X10399Y223554D01*
X10477Y223439D01*
X10493Y223425D01*
X10504Y223409D01*
X10611Y223320D01*
X10716Y223228D01*
X10734Y223219D01*
X10749Y223206D01*
X10875Y223147D01*
X10999Y223084D01*
X11019Y223079D01*
X11037Y223071D01*
X11173Y223045D01*
X11309Y223014D01*
X11330Y223015D01*
X11349Y223011D01*
X11488Y223020D01*
X11627Y223024D01*
X11647Y223029D01*
X11667Y223031D01*
X11799Y223073D01*
X11933Y223112D01*
X11950Y223122D01*
X11969Y223129D01*
X12087Y223203D01*
X12207Y223274D01*
X12228Y223292D01*
X12238Y223299D01*
X12252Y223314D01*
X12328Y223380D01*
X12600Y223653D01*
X15961Y225045D01*
X34839Y225045D01*
X38200Y223653D01*
X40773Y221080D01*
X42165Y217719D01*
X42165Y214081D01*
X40773Y210720D01*
X38200Y208147D01*
X34839Y206755D01*
X15961Y206755D01*
X12600Y208147D01*
X12328Y208420D01*
X12218Y208505D01*
X12111Y208594D01*
X12092Y208602D01*
X12076Y208615D01*
X11949Y208670D01*
X11823Y208729D01*
X11803Y208733D01*
X11784Y208741D01*
X11647Y208763D01*
X11510Y208789D01*
X11490Y208788D01*
X11470Y208791D01*
X11331Y208778D01*
X11193Y208769D01*
X11174Y208763D01*
X11154Y208761D01*
X11022Y208714D01*
X10891Y208671D01*
X10874Y208661D01*
X10854Y208654D01*
X10739Y208576D01*
X10622Y208501D01*
X10608Y208486D01*
X10591Y208475D01*
X10499Y208371D01*
X10404Y208270D01*
X10394Y208252D01*
X10381Y208237D01*
X10317Y208113D01*
X10250Y207991D01*
X10245Y207972D01*
X10236Y207953D01*
X10206Y207817D01*
X10171Y207683D01*
X10169Y207655D01*
X10166Y207643D01*
X10167Y207623D01*
X10161Y207522D01*
X10161Y198878D01*
X10178Y198740D01*
X10191Y198601D01*
X10198Y198582D01*
X10201Y198562D01*
X10252Y198433D01*
X10299Y198302D01*
X10310Y198285D01*
X10318Y198266D01*
X10399Y198154D01*
X10477Y198039D01*
X10493Y198025D01*
X10504Y198009D01*
X10611Y197920D01*
X10716Y197828D01*
X10734Y197819D01*
X10749Y197806D01*
X10875Y197747D01*
X10999Y197684D01*
X11019Y197679D01*
X11037Y197671D01*
X11173Y197645D01*
X11309Y197614D01*
X11330Y197615D01*
X11349Y197611D01*
X11488Y197620D01*
X11627Y197624D01*
X11647Y197629D01*
X11667Y197631D01*
X11799Y197673D01*
X11933Y197712D01*
X11950Y197722D01*
X11969Y197729D01*
X12087Y197803D01*
X12207Y197874D01*
X12228Y197892D01*
X12238Y197899D01*
X12252Y197914D01*
X12328Y197980D01*
X12600Y198253D01*
X15961Y199645D01*
X34839Y199645D01*
X38200Y198253D01*
X40773Y195680D01*
X42165Y192319D01*
X42165Y188681D01*
X40773Y185320D01*
X38200Y182747D01*
X34839Y181355D01*
X15961Y181355D01*
X12600Y182747D01*
X12328Y183020D01*
X12218Y183105D01*
X12111Y183194D01*
X12092Y183202D01*
X12076Y183215D01*
X11949Y183270D01*
X11823Y183329D01*
X11803Y183333D01*
X11784Y183341D01*
X11647Y183363D01*
X11510Y183389D01*
X11490Y183388D01*
X11470Y183391D01*
X11331Y183378D01*
X11193Y183369D01*
X11174Y183363D01*
X11154Y183361D01*
X11022Y183314D01*
X10891Y183271D01*
X10874Y183261D01*
X10854Y183254D01*
X10739Y183176D01*
X10622Y183101D01*
X10608Y183086D01*
X10591Y183075D01*
X10499Y182971D01*
X10404Y182870D01*
X10394Y182852D01*
X10381Y182837D01*
X10317Y182713D01*
X10250Y182591D01*
X10245Y182572D01*
X10236Y182553D01*
X10206Y182417D01*
X10171Y182283D01*
X10169Y182255D01*
X10166Y182243D01*
X10167Y182223D01*
X10161Y182122D01*
X10161Y174615D01*
X10166Y174575D01*
X10163Y174535D01*
X10186Y174418D01*
X10201Y174299D01*
X10215Y174262D01*
X10223Y174223D01*
X10274Y174115D01*
X10318Y174003D01*
X10341Y173971D01*
X10358Y173935D01*
X10434Y173843D01*
X10504Y173746D01*
X10535Y173721D01*
X10560Y173690D01*
X10657Y173620D01*
X10749Y173543D01*
X10785Y173526D01*
X10818Y173503D01*
X10929Y173459D01*
X11037Y173408D01*
X11076Y173400D01*
X11113Y173386D01*
X11232Y173370D01*
X11349Y173348D01*
X11389Y173350D01*
X11429Y173345D01*
X11548Y173360D01*
X11667Y173368D01*
X11705Y173380D01*
X11744Y173385D01*
X11856Y173429D01*
X11969Y173466D01*
X12003Y173487D01*
X12040Y173502D01*
X12176Y173588D01*
X12455Y173790D01*
X13880Y174516D01*
X15401Y175011D01*
X16980Y175261D01*
X22861Y175261D01*
X22861Y166370D01*
X22876Y166252D01*
X22883Y166133D01*
X22896Y166095D01*
X22901Y166055D01*
X22944Y165944D01*
X22981Y165831D01*
X23003Y165797D01*
X23018Y165759D01*
X23088Y165663D01*
X23151Y165562D01*
X23181Y165534D01*
X23204Y165502D01*
X23296Y165426D01*
X23383Y165344D01*
X23418Y165325D01*
X23449Y165299D01*
X23557Y165248D01*
X23661Y165191D01*
X23701Y165180D01*
X23737Y165163D01*
X23854Y165141D01*
X23969Y165111D01*
X24030Y165107D01*
X24050Y165103D01*
X24070Y165105D01*
X24130Y165101D01*
X25401Y165101D01*
X25401Y165099D01*
X24130Y165099D01*
X24012Y165084D01*
X23893Y165077D01*
X23855Y165064D01*
X23814Y165059D01*
X23704Y165015D01*
X23591Y164979D01*
X23556Y164957D01*
X23519Y164942D01*
X23423Y164872D01*
X23322Y164809D01*
X23294Y164779D01*
X23261Y164755D01*
X23186Y164664D01*
X23104Y164577D01*
X23084Y164542D01*
X23059Y164510D01*
X23008Y164403D01*
X22950Y164298D01*
X22940Y164259D01*
X22923Y164223D01*
X22901Y164106D01*
X22871Y163991D01*
X22867Y163930D01*
X22863Y163910D01*
X22865Y163890D01*
X22861Y163830D01*
X22861Y154939D01*
X16980Y154939D01*
X15401Y155189D01*
X13880Y155684D01*
X12455Y156410D01*
X12176Y156612D01*
X12141Y156631D01*
X12111Y156657D01*
X12002Y156708D01*
X11897Y156765D01*
X11859Y156775D01*
X11823Y156792D01*
X11705Y156815D01*
X11589Y156845D01*
X11550Y156845D01*
X11510Y156852D01*
X11391Y156845D01*
X11271Y156845D01*
X11233Y156835D01*
X11193Y156832D01*
X11079Y156795D01*
X10963Y156766D01*
X10928Y156747D01*
X10891Y156734D01*
X10789Y156670D01*
X10685Y156613D01*
X10656Y156585D01*
X10622Y156564D01*
X10540Y156477D01*
X10453Y156395D01*
X10431Y156362D01*
X10404Y156332D01*
X10346Y156228D01*
X10282Y156127D01*
X10270Y156089D01*
X10250Y156054D01*
X10221Y155938D01*
X10183Y155824D01*
X10181Y155785D01*
X10171Y155746D01*
X10161Y155585D01*
X10161Y149215D01*
X10166Y149175D01*
X10163Y149135D01*
X10186Y149018D01*
X10201Y148899D01*
X10215Y148862D01*
X10223Y148823D01*
X10274Y148715D01*
X10318Y148603D01*
X10341Y148571D01*
X10358Y148535D01*
X10434Y148443D01*
X10504Y148346D01*
X10535Y148321D01*
X10560Y148290D01*
X10657Y148220D01*
X10749Y148143D01*
X10785Y148126D01*
X10818Y148103D01*
X10929Y148059D01*
X11037Y148008D01*
X11076Y148000D01*
X11113Y147986D01*
X11232Y147970D01*
X11349Y147948D01*
X11389Y147950D01*
X11429Y147945D01*
X11548Y147960D01*
X11667Y147968D01*
X11705Y147980D01*
X11744Y147985D01*
X11856Y148029D01*
X11969Y148066D01*
X12003Y148087D01*
X12040Y148102D01*
X12176Y148188D01*
X12455Y148390D01*
X13880Y149116D01*
X15401Y149611D01*
X16980Y149861D01*
X22861Y149861D01*
X22861Y140970D01*
X22876Y140852D01*
X22883Y140733D01*
X22896Y140695D01*
X22901Y140655D01*
X22944Y140544D01*
X22981Y140431D01*
X23003Y140397D01*
X23018Y140359D01*
X23088Y140263D01*
X23151Y140162D01*
X23181Y140134D01*
X23204Y140102D01*
X23296Y140026D01*
X23383Y139944D01*
X23418Y139925D01*
X23449Y139899D01*
X23557Y139848D01*
X23661Y139791D01*
X23701Y139780D01*
X23737Y139763D01*
X23854Y139741D01*
X23969Y139711D01*
X24030Y139707D01*
X24050Y139703D01*
X24070Y139705D01*
X24130Y139701D01*
X25401Y139701D01*
X25401Y139699D01*
X24130Y139699D01*
X24012Y139684D01*
X23893Y139677D01*
X23855Y139664D01*
X23814Y139659D01*
X23704Y139615D01*
X23591Y139579D01*
X23556Y139557D01*
X23519Y139542D01*
X23423Y139472D01*
X23322Y139409D01*
X23294Y139379D01*
X23261Y139355D01*
X23186Y139264D01*
X23104Y139177D01*
X23084Y139142D01*
X23059Y139110D01*
X23008Y139003D01*
X22950Y138898D01*
X22940Y138859D01*
X22923Y138823D01*
X22901Y138706D01*
X22871Y138591D01*
X22867Y138530D01*
X22863Y138510D01*
X22865Y138490D01*
X22861Y138430D01*
X22861Y129539D01*
X16980Y129539D01*
X15401Y129789D01*
X13880Y130284D01*
X12455Y131010D01*
X12176Y131212D01*
X12141Y131231D01*
X12111Y131257D01*
X12002Y131308D01*
X11897Y131365D01*
X11859Y131375D01*
X11823Y131392D01*
X11705Y131415D01*
X11589Y131445D01*
X11550Y131445D01*
X11510Y131452D01*
X11391Y131445D01*
X11271Y131445D01*
X11233Y131435D01*
X11193Y131432D01*
X11079Y131395D01*
X10963Y131366D01*
X10928Y131347D01*
X10891Y131334D01*
X10789Y131270D01*
X10685Y131213D01*
X10656Y131185D01*
X10622Y131164D01*
X10540Y131077D01*
X10453Y130995D01*
X10431Y130962D01*
X10404Y130932D01*
X10346Y130828D01*
X10282Y130727D01*
X10270Y130689D01*
X10250Y130654D01*
X10221Y130538D01*
X10183Y130424D01*
X10181Y130385D01*
X10171Y130346D01*
X10161Y130185D01*
X10161Y84578D01*
X10178Y84440D01*
X10191Y84301D01*
X10198Y84282D01*
X10201Y84262D01*
X10252Y84133D01*
X10299Y84002D01*
X10310Y83985D01*
X10318Y83966D01*
X10399Y83854D01*
X10477Y83739D01*
X10493Y83725D01*
X10504Y83709D01*
X10611Y83620D01*
X10716Y83528D01*
X10734Y83519D01*
X10749Y83506D01*
X10875Y83447D01*
X10999Y83384D01*
X11019Y83379D01*
X11037Y83371D01*
X11173Y83345D01*
X11309Y83314D01*
X11330Y83315D01*
X11349Y83311D01*
X11488Y83320D01*
X11627Y83324D01*
X11647Y83329D01*
X11667Y83331D01*
X11799Y83373D01*
X11933Y83412D01*
X11950Y83422D01*
X11969Y83429D01*
X12087Y83503D01*
X12207Y83574D01*
X12228Y83592D01*
X12238Y83599D01*
X12252Y83614D01*
X12328Y83680D01*
X12600Y83953D01*
X15961Y85345D01*
X34839Y85345D01*
X38200Y83953D01*
X40773Y81380D01*
X42165Y78019D01*
X42165Y74381D01*
X40773Y71020D01*
X38200Y68447D01*
X34839Y67055D01*
X15961Y67055D01*
X12600Y68447D01*
X12328Y68720D01*
X12218Y68805D01*
X12111Y68894D01*
X12092Y68902D01*
X12076Y68915D01*
X11949Y68970D01*
X11823Y69029D01*
X11803Y69033D01*
X11784Y69041D01*
X11647Y69063D01*
X11510Y69089D01*
X11490Y69088D01*
X11470Y69091D01*
X11331Y69078D01*
X11193Y69069D01*
X11174Y69063D01*
X11154Y69061D01*
X11022Y69014D01*
X10891Y68971D01*
X10874Y68961D01*
X10854Y68954D01*
X10739Y68876D01*
X10622Y68801D01*
X10608Y68786D01*
X10591Y68775D01*
X10499Y68671D01*
X10404Y68570D01*
X10394Y68552D01*
X10381Y68537D01*
X10317Y68412D01*
X10250Y68291D01*
X10245Y68272D01*
X10236Y68253D01*
X10206Y68117D01*
X10171Y67983D01*
X10169Y67955D01*
X10166Y67943D01*
X10167Y67923D01*
X10161Y67822D01*
X10161Y59178D01*
X10178Y59039D01*
X10191Y58901D01*
X10198Y58882D01*
X10201Y58862D01*
X10252Y58733D01*
X10299Y58602D01*
X10310Y58585D01*
X10318Y58566D01*
X10399Y58454D01*
X10477Y58339D01*
X10493Y58325D01*
X10504Y58309D01*
X10611Y58220D01*
X10716Y58128D01*
X10734Y58119D01*
X10749Y58106D01*
X10875Y58047D01*
X10999Y57984D01*
X11019Y57979D01*
X11037Y57971D01*
X11173Y57945D01*
X11309Y57914D01*
X11330Y57915D01*
X11349Y57911D01*
X11488Y57920D01*
X11627Y57924D01*
X11647Y57929D01*
X11667Y57931D01*
X11799Y57973D01*
X11933Y58012D01*
X11950Y58022D01*
X11969Y58029D01*
X12087Y58103D01*
X12207Y58174D01*
X12228Y58192D01*
X12238Y58199D01*
X12252Y58214D01*
X12328Y58280D01*
X12600Y58553D01*
X15961Y59945D01*
X34839Y59945D01*
X38200Y58553D01*
X40773Y55980D01*
X42165Y52619D01*
X42165Y48981D01*
X40773Y45620D01*
X38200Y43047D01*
X34839Y41655D01*
X15961Y41655D01*
X12600Y43047D01*
X12328Y43320D01*
X12218Y43405D01*
X12111Y43494D01*
X12092Y43502D01*
X12076Y43515D01*
X11949Y43570D01*
X11823Y43629D01*
X11803Y43633D01*
X11784Y43641D01*
X11647Y43663D01*
X11510Y43689D01*
X11490Y43688D01*
X11470Y43691D01*
X11331Y43678D01*
X11193Y43669D01*
X11174Y43663D01*
X11154Y43661D01*
X11022Y43614D01*
X10891Y43571D01*
X10874Y43561D01*
X10854Y43554D01*
X10739Y43476D01*
X10622Y43401D01*
X10608Y43386D01*
X10591Y43375D01*
X10499Y43271D01*
X10404Y43170D01*
X10394Y43152D01*
X10381Y43137D01*
X10317Y43013D01*
X10250Y42891D01*
X10245Y42872D01*
X10236Y42853D01*
X10206Y42717D01*
X10171Y42583D01*
X10169Y42555D01*
X10166Y42543D01*
X10167Y42523D01*
X10161Y42422D01*
X10161Y34915D01*
X10166Y34875D01*
X10163Y34835D01*
X10186Y34718D01*
X10201Y34599D01*
X10215Y34562D01*
X10223Y34523D01*
X10274Y34415D01*
X10318Y34303D01*
X10341Y34271D01*
X10358Y34235D01*
X10434Y34143D01*
X10504Y34046D01*
X10535Y34021D01*
X10560Y33990D01*
X10657Y33920D01*
X10749Y33843D01*
X10785Y33826D01*
X10818Y33803D01*
X10929Y33759D01*
X11037Y33708D01*
X11076Y33700D01*
X11113Y33686D01*
X11232Y33670D01*
X11349Y33648D01*
X11389Y33650D01*
X11429Y33645D01*
X11548Y33660D01*
X11667Y33668D01*
X11705Y33680D01*
X11744Y33685D01*
X11856Y33729D01*
X11969Y33766D01*
X12003Y33787D01*
X12040Y33802D01*
X12176Y33888D01*
X12455Y34090D01*
X13880Y34816D01*
X15401Y35311D01*
X16980Y35561D01*
X22861Y35561D01*
X22861Y26670D01*
X22876Y26552D01*
X22883Y26433D01*
X22896Y26395D01*
X22901Y26355D01*
X22944Y26244D01*
X22981Y26131D01*
X23003Y26097D01*
X23018Y26059D01*
X23088Y25963D01*
X23151Y25862D01*
X23181Y25834D01*
X23204Y25802D01*
X23296Y25726D01*
X23383Y25644D01*
X23418Y25625D01*
X23449Y25599D01*
X23557Y25548D01*
X23661Y25491D01*
X23701Y25480D01*
X23737Y25463D01*
X23854Y25441D01*
X23969Y25411D01*
X24030Y25407D01*
X24050Y25403D01*
X24070Y25405D01*
X24130Y25401D01*
X25401Y25401D01*
X25401Y25399D01*
X24130Y25399D01*
X24012Y25384D01*
X23893Y25377D01*
X23855Y25364D01*
X23814Y25359D01*
X23704Y25315D01*
X23591Y25279D01*
X23556Y25257D01*
X23519Y25242D01*
X23423Y25172D01*
X23322Y25109D01*
X23294Y25079D01*
X23261Y25055D01*
X23186Y24964D01*
X23104Y24877D01*
X23084Y24842D01*
X23059Y24810D01*
X23008Y24703D01*
X22950Y24598D01*
X22940Y24559D01*
X22923Y24523D01*
X22901Y24406D01*
X22871Y24291D01*
X22867Y24230D01*
X22863Y24210D01*
X22864Y24205D01*
X22863Y24203D01*
X22864Y24186D01*
X22861Y24130D01*
X22861Y15239D01*
X16980Y15239D01*
X15401Y15489D01*
X13880Y15984D01*
X12455Y16710D01*
X12176Y16912D01*
X12141Y16931D01*
X12111Y16957D01*
X12002Y17008D01*
X11897Y17065D01*
X11859Y17075D01*
X11823Y17092D01*
X11705Y17115D01*
X11589Y17145D01*
X11550Y17145D01*
X11510Y17152D01*
X11391Y17145D01*
X11271Y17145D01*
X11233Y17135D01*
X11193Y17132D01*
X11079Y17095D01*
X10963Y17066D01*
X10928Y17047D01*
X10891Y17034D01*
X10789Y16970D01*
X10685Y16913D01*
X10656Y16885D01*
X10622Y16864D01*
X10540Y16777D01*
X10453Y16695D01*
X10431Y16662D01*
X10404Y16632D01*
X10346Y16528D01*
X10282Y16427D01*
X10270Y16389D01*
X10250Y16354D01*
X10221Y16238D01*
X10183Y16124D01*
X10181Y16085D01*
X10171Y16046D01*
X10161Y15885D01*
X10161Y11430D01*
X10176Y11312D01*
X10183Y11193D01*
X10196Y11155D01*
X10201Y11114D01*
X10244Y11004D01*
X10281Y10891D01*
X10303Y10856D01*
X10318Y10819D01*
X10387Y10723D01*
X10451Y10622D01*
X10481Y10594D01*
X10504Y10561D01*
X10596Y10485D01*
X10683Y10404D01*
X10718Y10384D01*
X10749Y10359D01*
X10857Y10308D01*
X10961Y10250D01*
X11001Y10240D01*
X11037Y10223D01*
X11154Y10201D01*
X11269Y10171D01*
X11329Y10167D01*
X11349Y10163D01*
X11370Y10165D01*
X11430Y10161D01*
X460702Y10161D01*
X460840Y10178D01*
G37*
%LPC*%
G36*
X214097Y321135D02*
X214097Y321135D01*
X210765Y322515D01*
X208215Y325065D01*
X206835Y328397D01*
X206835Y332003D01*
X208215Y335335D01*
X210765Y337885D01*
X214097Y339265D01*
X217703Y339265D01*
X219260Y338620D01*
X219288Y338612D01*
X219314Y338599D01*
X219441Y338570D01*
X219566Y338536D01*
X219596Y338536D01*
X219625Y338529D01*
X219754Y338533D01*
X219884Y338531D01*
X219913Y338538D01*
X219943Y338539D01*
X220067Y338575D01*
X220194Y338605D01*
X220220Y338619D01*
X220248Y338627D01*
X220360Y338693D01*
X220475Y338754D01*
X220497Y338774D01*
X220522Y338789D01*
X220643Y338895D01*
X263534Y381786D01*
X263594Y381864D01*
X263662Y381936D01*
X263691Y381989D01*
X263728Y382037D01*
X263768Y382128D01*
X263816Y382215D01*
X263831Y382273D01*
X263855Y382329D01*
X263870Y382427D01*
X263895Y382523D01*
X263901Y382623D01*
X263905Y382643D01*
X263903Y382655D01*
X263905Y382683D01*
X263905Y432958D01*
X281916Y450969D01*
X282001Y451078D01*
X282090Y451185D01*
X282099Y451204D01*
X282111Y451220D01*
X282167Y451348D01*
X282226Y451473D01*
X282229Y451493D01*
X282237Y451512D01*
X282259Y451650D01*
X282285Y451786D01*
X282284Y451806D01*
X282287Y451826D01*
X282274Y451965D01*
X282266Y452103D01*
X282259Y452122D01*
X282258Y452142D01*
X282210Y452274D01*
X282168Y452405D01*
X282157Y452423D01*
X282150Y452442D01*
X282072Y452557D01*
X281997Y452674D01*
X281983Y452688D01*
X281971Y452705D01*
X281867Y452797D01*
X281766Y452892D01*
X281748Y452902D01*
X281733Y452915D01*
X281609Y452978D01*
X281487Y453046D01*
X281468Y453051D01*
X281450Y453060D01*
X281314Y453090D01*
X281179Y453125D01*
X281151Y453127D01*
X281139Y453130D01*
X281119Y453129D01*
X281019Y453135D01*
X277581Y453135D01*
X274220Y454527D01*
X271997Y456750D01*
X271903Y456823D01*
X271814Y456902D01*
X271778Y456920D01*
X271746Y456945D01*
X271637Y456992D01*
X271531Y457046D01*
X271491Y457055D01*
X271454Y457071D01*
X271337Y457090D01*
X271221Y457116D01*
X271180Y457115D01*
X271140Y457121D01*
X271022Y457110D01*
X270903Y457106D01*
X270864Y457095D01*
X270824Y457091D01*
X270711Y457051D01*
X270597Y457018D01*
X270562Y456997D01*
X270524Y456984D01*
X270426Y456917D01*
X270323Y456856D01*
X270278Y456817D01*
X270261Y456805D01*
X270248Y456790D01*
X270202Y456750D01*
X257166Y443714D01*
X257106Y443636D01*
X257038Y443564D01*
X257009Y443511D01*
X256972Y443463D01*
X256932Y443372D01*
X256884Y443285D01*
X256869Y443227D01*
X256845Y443171D01*
X256830Y443073D01*
X256805Y442977D01*
X256799Y442877D01*
X256795Y442857D01*
X256797Y442845D01*
X256795Y442817D01*
X256795Y392542D01*
X254786Y390534D01*
X224595Y360343D01*
X224577Y360319D01*
X224555Y360300D01*
X224480Y360194D01*
X224400Y360092D01*
X224388Y360064D01*
X224371Y360040D01*
X224325Y359919D01*
X224274Y359800D01*
X224269Y359771D01*
X224259Y359743D01*
X224244Y359614D01*
X224224Y359486D01*
X224227Y359456D01*
X224224Y359427D01*
X224242Y359298D01*
X224254Y359169D01*
X224264Y359141D01*
X224268Y359112D01*
X224320Y358960D01*
X224965Y357403D01*
X224965Y353797D01*
X223585Y350465D01*
X221035Y347915D01*
X217703Y346535D01*
X214097Y346535D01*
X210765Y347915D01*
X208215Y350465D01*
X206835Y353797D01*
X206835Y357403D01*
X208215Y360735D01*
X210765Y363285D01*
X214097Y364665D01*
X217703Y364665D01*
X219260Y364020D01*
X219288Y364012D01*
X219314Y363999D01*
X219441Y363970D01*
X219566Y363936D01*
X219596Y363936D01*
X219625Y363929D01*
X219754Y363933D01*
X219884Y363931D01*
X219913Y363938D01*
X219943Y363939D01*
X220067Y363975D01*
X220194Y364005D01*
X220220Y364019D01*
X220248Y364027D01*
X220360Y364093D01*
X220475Y364154D01*
X220497Y364174D01*
X220522Y364189D01*
X220643Y364295D01*
X250834Y394486D01*
X250894Y394564D01*
X250962Y394636D01*
X250991Y394689D01*
X251028Y394737D01*
X251068Y394828D01*
X251116Y394915D01*
X251131Y394973D01*
X251155Y395029D01*
X251170Y395127D01*
X251195Y395223D01*
X251201Y395323D01*
X251205Y395343D01*
X251203Y395355D01*
X251205Y395383D01*
X251205Y445658D01*
X253214Y447666D01*
X256167Y450620D01*
X256228Y450698D01*
X256296Y450770D01*
X256325Y450823D01*
X256362Y450871D01*
X256402Y450962D01*
X256450Y451049D01*
X256465Y451107D01*
X256489Y451163D01*
X256504Y451261D01*
X256529Y451357D01*
X256535Y451457D01*
X256539Y451477D01*
X256537Y451489D01*
X256539Y451517D01*
X256539Y467361D01*
X264161Y467361D01*
X264161Y461677D01*
X264178Y461540D01*
X264191Y461401D01*
X264198Y461382D01*
X264201Y461362D01*
X264252Y461233D01*
X264299Y461102D01*
X264310Y461085D01*
X264318Y461066D01*
X264399Y460954D01*
X264477Y460839D01*
X264493Y460825D01*
X264504Y460809D01*
X264612Y460720D01*
X264716Y460628D01*
X264734Y460619D01*
X264749Y460606D01*
X264875Y460547D01*
X264999Y460483D01*
X265019Y460479D01*
X265037Y460470D01*
X265173Y460444D01*
X265309Y460414D01*
X265330Y460414D01*
X265349Y460411D01*
X265488Y460419D01*
X265627Y460423D01*
X265647Y460429D01*
X265667Y460430D01*
X265799Y460473D01*
X265933Y460512D01*
X265950Y460522D01*
X265969Y460528D01*
X266087Y460603D01*
X266207Y460673D01*
X266228Y460692D01*
X266238Y460699D01*
X266252Y460713D01*
X266327Y460780D01*
X269884Y464336D01*
X269944Y464414D01*
X270012Y464486D01*
X270041Y464539D01*
X270078Y464587D01*
X270118Y464678D01*
X270166Y464765D01*
X270181Y464823D01*
X270205Y464879D01*
X270220Y464977D01*
X270245Y465073D01*
X270251Y465173D01*
X270255Y465193D01*
X270253Y465205D01*
X270255Y465233D01*
X270255Y479339D01*
X271647Y482700D01*
X274220Y485273D01*
X277581Y486665D01*
X281219Y486665D01*
X284580Y485273D01*
X287153Y482700D01*
X288545Y479339D01*
X288545Y460661D01*
X288562Y460524D01*
X288575Y460385D01*
X288582Y460366D01*
X288585Y460346D01*
X288636Y460217D01*
X288683Y460086D01*
X288694Y460069D01*
X288702Y460050D01*
X288783Y459938D01*
X288861Y459823D01*
X288877Y459809D01*
X288888Y459793D01*
X288996Y459704D01*
X289100Y459612D01*
X289118Y459603D01*
X289133Y459590D01*
X289259Y459531D01*
X289383Y459467D01*
X289403Y459463D01*
X289421Y459454D01*
X289557Y459428D01*
X289693Y459398D01*
X289714Y459398D01*
X289733Y459395D01*
X289872Y459403D01*
X290011Y459407D01*
X290031Y459413D01*
X290051Y459414D01*
X290183Y459457D01*
X290317Y459496D01*
X290334Y459506D01*
X290353Y459512D01*
X290471Y459587D01*
X290591Y459657D01*
X290612Y459676D01*
X290622Y459683D01*
X290636Y459697D01*
X290711Y459764D01*
X295284Y464336D01*
X295344Y464414D01*
X295412Y464486D01*
X295441Y464539D01*
X295478Y464587D01*
X295518Y464678D01*
X295566Y464765D01*
X295581Y464823D01*
X295605Y464879D01*
X295620Y464977D01*
X295645Y465073D01*
X295651Y465173D01*
X295655Y465193D01*
X295653Y465205D01*
X295655Y465233D01*
X295655Y479339D01*
X297047Y482700D01*
X299620Y485273D01*
X302981Y486665D01*
X306619Y486665D01*
X309980Y485273D01*
X312553Y482700D01*
X313945Y479339D01*
X313945Y460461D01*
X312553Y457100D01*
X309980Y454527D01*
X306619Y453135D01*
X302981Y453135D01*
X299620Y454527D01*
X297397Y456750D01*
X297303Y456823D01*
X297214Y456902D01*
X297178Y456920D01*
X297146Y456945D01*
X297037Y456992D01*
X296931Y457046D01*
X296891Y457055D01*
X296854Y457071D01*
X296737Y457090D01*
X296621Y457116D01*
X296580Y457115D01*
X296540Y457121D01*
X296422Y457110D01*
X296303Y457106D01*
X296264Y457095D01*
X296224Y457091D01*
X296111Y457051D01*
X295997Y457018D01*
X295962Y456997D01*
X295924Y456984D01*
X295826Y456917D01*
X295723Y456856D01*
X295678Y456817D01*
X295661Y456805D01*
X295648Y456790D01*
X295602Y456750D01*
X269866Y431014D01*
X269806Y430936D01*
X269738Y430864D01*
X269709Y430811D01*
X269672Y430763D01*
X269632Y430672D01*
X269584Y430585D01*
X269569Y430527D01*
X269545Y430471D01*
X269530Y430373D01*
X269505Y430277D01*
X269499Y430177D01*
X269495Y430157D01*
X269497Y430145D01*
X269495Y430117D01*
X269495Y379842D01*
X267486Y377834D01*
X224595Y334943D01*
X224577Y334919D01*
X224555Y334900D01*
X224480Y334794D01*
X224400Y334692D01*
X224388Y334664D01*
X224371Y334640D01*
X224325Y334519D01*
X224274Y334400D01*
X224269Y334371D01*
X224259Y334343D01*
X224244Y334214D01*
X224224Y334086D01*
X224227Y334056D01*
X224224Y334027D01*
X224242Y333898D01*
X224254Y333769D01*
X224264Y333741D01*
X224268Y333712D01*
X224320Y333560D01*
X224965Y332003D01*
X224965Y328397D01*
X223585Y325065D01*
X221035Y322515D01*
X217703Y321135D01*
X214097Y321135D01*
G37*
%LPD*%
%LPC*%
G36*
X214097Y117935D02*
X214097Y117935D01*
X210765Y119315D01*
X208215Y121865D01*
X206835Y125197D01*
X206835Y128803D01*
X207164Y129598D01*
X207172Y129626D01*
X207186Y129652D01*
X207214Y129779D01*
X207248Y129904D01*
X207249Y129934D01*
X207255Y129963D01*
X207251Y130092D01*
X207253Y130222D01*
X207246Y130251D01*
X207246Y130281D01*
X207210Y130405D01*
X207179Y130532D01*
X207165Y130558D01*
X207157Y130586D01*
X207091Y130698D01*
X207030Y130813D01*
X207011Y130835D01*
X206996Y130860D01*
X206889Y130981D01*
X202099Y135772D01*
X202020Y135832D01*
X201948Y135900D01*
X201895Y135929D01*
X201847Y135966D01*
X201756Y136006D01*
X201670Y136054D01*
X201611Y136069D01*
X201555Y136093D01*
X201457Y136108D01*
X201362Y136133D01*
X201262Y136139D01*
X201241Y136143D01*
X201229Y136141D01*
X201201Y136143D01*
X195917Y136143D01*
X195779Y136126D01*
X195640Y136113D01*
X195621Y136106D01*
X195601Y136103D01*
X195472Y136052D01*
X195341Y136005D01*
X195324Y135994D01*
X195305Y135986D01*
X195193Y135905D01*
X195078Y135827D01*
X195065Y135811D01*
X195048Y135800D01*
X194959Y135692D01*
X194867Y135588D01*
X194858Y135570D01*
X194845Y135555D01*
X194786Y135429D01*
X194723Y135305D01*
X194718Y135285D01*
X194710Y135267D01*
X194684Y135131D01*
X194653Y134995D01*
X194654Y134974D01*
X194650Y134955D01*
X194659Y134816D01*
X194663Y134677D01*
X194669Y134657D01*
X194670Y134637D01*
X194713Y134504D01*
X194751Y134371D01*
X194762Y134354D01*
X194768Y134335D01*
X194842Y134217D01*
X194913Y134097D01*
X194931Y134076D01*
X194938Y134066D01*
X194953Y134052D01*
X195019Y133977D01*
X198629Y130367D01*
X198629Y123633D01*
X193867Y118871D01*
X187133Y118871D01*
X182371Y123633D01*
X182371Y130367D01*
X185981Y133977D01*
X186066Y134086D01*
X186155Y134193D01*
X186163Y134212D01*
X186176Y134228D01*
X186231Y134356D01*
X186290Y134481D01*
X186294Y134501D01*
X186302Y134520D01*
X186324Y134658D01*
X186350Y134794D01*
X186349Y134814D01*
X186352Y134834D01*
X186339Y134973D01*
X186330Y135111D01*
X186324Y135130D01*
X186322Y135150D01*
X186275Y135282D01*
X186232Y135413D01*
X186221Y135431D01*
X186215Y135450D01*
X186136Y135565D01*
X186062Y135682D01*
X186047Y135696D01*
X186036Y135713D01*
X185932Y135805D01*
X185830Y135900D01*
X185813Y135910D01*
X185798Y135923D01*
X185673Y135987D01*
X185552Y136054D01*
X185532Y136059D01*
X185514Y136068D01*
X185378Y136098D01*
X185244Y136133D01*
X185216Y136135D01*
X185204Y136138D01*
X185183Y136137D01*
X185083Y136143D01*
X171954Y136143D01*
X171816Y136126D01*
X171677Y136113D01*
X171658Y136106D01*
X171638Y136103D01*
X171509Y136052D01*
X171378Y136005D01*
X171361Y135994D01*
X171342Y135986D01*
X171230Y135905D01*
X171115Y135827D01*
X171101Y135811D01*
X171085Y135800D01*
X170996Y135692D01*
X170904Y135588D01*
X170895Y135570D01*
X170882Y135555D01*
X170823Y135429D01*
X170760Y135305D01*
X170755Y135285D01*
X170747Y135267D01*
X170721Y135131D01*
X170690Y134995D01*
X170691Y134974D01*
X170687Y134955D01*
X170695Y134816D01*
X170700Y134677D01*
X170705Y134657D01*
X170707Y134637D01*
X170750Y134504D01*
X170788Y134371D01*
X170798Y134354D01*
X170805Y134335D01*
X170879Y134217D01*
X170950Y134097D01*
X170968Y134076D01*
X170975Y134066D01*
X170990Y134052D01*
X171056Y133977D01*
X174245Y130788D01*
X174245Y129031D01*
X165862Y129031D01*
X165744Y129016D01*
X165625Y129009D01*
X165587Y128996D01*
X165547Y128991D01*
X165436Y128948D01*
X165323Y128911D01*
X165289Y128889D01*
X165251Y128874D01*
X165155Y128805D01*
X165103Y128771D01*
X165085Y128788D01*
X165050Y128808D01*
X165018Y128833D01*
X164911Y128884D01*
X164806Y128942D01*
X164767Y128952D01*
X164731Y128969D01*
X164614Y128991D01*
X164498Y129021D01*
X164438Y129025D01*
X164418Y129029D01*
X164398Y129027D01*
X164338Y129031D01*
X155955Y129031D01*
X155955Y130788D01*
X159144Y133977D01*
X159229Y134086D01*
X159318Y134193D01*
X159326Y134212D01*
X159339Y134228D01*
X159394Y134356D01*
X159453Y134481D01*
X159457Y134501D01*
X159465Y134520D01*
X159487Y134658D01*
X159513Y134794D01*
X159512Y134814D01*
X159515Y134834D01*
X159502Y134973D01*
X159493Y135111D01*
X159487Y135130D01*
X159485Y135150D01*
X159438Y135282D01*
X159395Y135413D01*
X159385Y135431D01*
X159378Y135450D01*
X159300Y135565D01*
X159225Y135682D01*
X159210Y135696D01*
X159199Y135713D01*
X159095Y135805D01*
X158994Y135900D01*
X158976Y135910D01*
X158961Y135923D01*
X158837Y135987D01*
X158715Y136054D01*
X158696Y136059D01*
X158677Y136068D01*
X158542Y136098D01*
X158407Y136133D01*
X158379Y136135D01*
X158367Y136138D01*
X158347Y136137D01*
X158246Y136143D01*
X128999Y136143D01*
X128901Y136131D01*
X128802Y136128D01*
X128744Y136111D01*
X128683Y136103D01*
X128591Y136067D01*
X128496Y136039D01*
X128444Y136009D01*
X128388Y135986D01*
X128308Y135928D01*
X128222Y135878D01*
X128147Y135812D01*
X128130Y135800D01*
X128123Y135790D01*
X128101Y135772D01*
X119978Y127649D01*
X119918Y127570D01*
X119850Y127498D01*
X119821Y127445D01*
X119784Y127397D01*
X119744Y127306D01*
X119696Y127220D01*
X119681Y127161D01*
X119657Y127105D01*
X119642Y127007D01*
X119617Y126912D01*
X119611Y126812D01*
X119607Y126791D01*
X119609Y126779D01*
X119607Y126751D01*
X119607Y125944D01*
X118799Y123994D01*
X117306Y122501D01*
X115356Y121693D01*
X113244Y121693D01*
X111294Y122501D01*
X109801Y123994D01*
X108993Y125944D01*
X108993Y128056D01*
X109801Y130006D01*
X111294Y131499D01*
X113244Y132307D01*
X114051Y132307D01*
X114149Y132319D01*
X114248Y132322D01*
X114306Y132339D01*
X114367Y132347D01*
X114459Y132383D01*
X114554Y132411D01*
X114606Y132441D01*
X114662Y132464D01*
X114742Y132522D01*
X114828Y132572D01*
X114903Y132638D01*
X114920Y132650D01*
X114927Y132660D01*
X114949Y132678D01*
X123072Y140801D01*
X123132Y140880D01*
X123200Y140952D01*
X123229Y141005D01*
X123266Y141053D01*
X123306Y141144D01*
X123354Y141230D01*
X123369Y141289D01*
X123393Y141345D01*
X123408Y141443D01*
X123433Y141538D01*
X123439Y141638D01*
X123443Y141659D01*
X123441Y141671D01*
X123443Y141699D01*
X123443Y270935D01*
X123431Y271033D01*
X123428Y271132D01*
X123411Y271191D01*
X123403Y271251D01*
X123367Y271343D01*
X123339Y271438D01*
X123309Y271490D01*
X123286Y271546D01*
X123228Y271626D01*
X123178Y271712D01*
X123112Y271787D01*
X123100Y271804D01*
X123090Y271812D01*
X123072Y271833D01*
X118871Y276033D01*
X118871Y282767D01*
X123633Y287529D01*
X130367Y287529D01*
X135129Y282767D01*
X135129Y276033D01*
X130928Y271833D01*
X130868Y271754D01*
X130800Y271682D01*
X130771Y271629D01*
X130734Y271581D01*
X130694Y271490D01*
X130646Y271404D01*
X130631Y271345D01*
X130607Y271290D01*
X130592Y271192D01*
X130567Y271096D01*
X130561Y270996D01*
X130557Y270976D01*
X130559Y270963D01*
X130557Y270935D01*
X130557Y144526D01*
X130572Y144408D01*
X130579Y144289D01*
X130592Y144251D01*
X130597Y144210D01*
X130640Y144100D01*
X130677Y143987D01*
X130699Y143952D01*
X130714Y143915D01*
X130783Y143819D01*
X130847Y143718D01*
X130877Y143690D01*
X130900Y143657D01*
X130992Y143581D01*
X131079Y143500D01*
X131114Y143480D01*
X131145Y143455D01*
X131253Y143404D01*
X131357Y143346D01*
X131397Y143336D01*
X131433Y143319D01*
X131550Y143297D01*
X131665Y143267D01*
X131725Y143263D01*
X131745Y143259D01*
X131766Y143261D01*
X131826Y143257D01*
X204673Y143257D01*
X211919Y136011D01*
X211943Y135993D01*
X211962Y135970D01*
X212068Y135896D01*
X212170Y135816D01*
X212198Y135804D01*
X212222Y135787D01*
X212343Y135741D01*
X212462Y135689D01*
X212491Y135685D01*
X212519Y135674D01*
X212648Y135660D01*
X212776Y135640D01*
X212806Y135642D01*
X212835Y135639D01*
X212964Y135657D01*
X213093Y135669D01*
X213121Y135679D01*
X213150Y135684D01*
X213302Y135736D01*
X214097Y136065D01*
X217703Y136065D01*
X221035Y134685D01*
X223585Y132135D01*
X224965Y128803D01*
X224965Y125197D01*
X223585Y121865D01*
X221035Y119315D01*
X217703Y117935D01*
X214097Y117935D01*
G37*
%LPD*%
%LPC*%
G36*
X358861Y105155D02*
X358861Y105155D01*
X355500Y106547D01*
X352927Y109120D01*
X351535Y112481D01*
X351535Y116119D01*
X352927Y119480D01*
X355150Y121703D01*
X355223Y121797D01*
X355302Y121886D01*
X355320Y121922D01*
X355345Y121954D01*
X355392Y122063D01*
X355446Y122169D01*
X355455Y122209D01*
X355471Y122246D01*
X355490Y122363D01*
X355516Y122479D01*
X355515Y122520D01*
X355521Y122560D01*
X355510Y122678D01*
X355506Y122797D01*
X355495Y122836D01*
X355491Y122876D01*
X355451Y122989D01*
X355418Y123103D01*
X355397Y123138D01*
X355384Y123176D01*
X355317Y123274D01*
X355256Y123377D01*
X355217Y123422D01*
X355205Y123439D01*
X355190Y123452D01*
X355150Y123498D01*
X329414Y149234D01*
X329336Y149294D01*
X329264Y149362D01*
X329211Y149391D01*
X329163Y149428D01*
X329072Y149468D01*
X328985Y149516D01*
X328927Y149531D01*
X328871Y149555D01*
X328773Y149570D01*
X328677Y149595D01*
X328577Y149601D01*
X328557Y149605D01*
X328545Y149603D01*
X328517Y149605D01*
X301602Y149605D01*
X301573Y149602D01*
X301543Y149604D01*
X301415Y149582D01*
X301287Y149565D01*
X301259Y149555D01*
X301230Y149550D01*
X301111Y149496D01*
X300991Y149448D01*
X300967Y149431D01*
X300940Y149419D01*
X300839Y149338D01*
X300734Y149262D01*
X300715Y149239D01*
X300692Y149220D01*
X300614Y149117D01*
X300531Y149017D01*
X300518Y148990D01*
X300500Y148966D01*
X300429Y148822D01*
X299785Y147265D01*
X297235Y144715D01*
X293903Y143335D01*
X290297Y143335D01*
X286965Y144715D01*
X284415Y147265D01*
X283035Y150597D01*
X283035Y154203D01*
X284415Y157535D01*
X286965Y160085D01*
X290297Y161465D01*
X293903Y161465D01*
X297235Y160085D01*
X299785Y157535D01*
X300429Y155978D01*
X300444Y155953D01*
X300453Y155925D01*
X300523Y155815D01*
X300587Y155702D01*
X300608Y155681D01*
X300623Y155656D01*
X300718Y155567D01*
X300808Y155474D01*
X300833Y155458D01*
X300855Y155438D01*
X300969Y155375D01*
X301079Y155307D01*
X301108Y155299D01*
X301133Y155284D01*
X301259Y155252D01*
X301383Y155214D01*
X301413Y155212D01*
X301441Y155205D01*
X301602Y155195D01*
X331358Y155195D01*
X349369Y137184D01*
X349478Y137099D01*
X349585Y137010D01*
X349604Y137001D01*
X349620Y136989D01*
X349748Y136933D01*
X349873Y136874D01*
X349893Y136871D01*
X349912Y136863D01*
X350050Y136841D01*
X350186Y136815D01*
X350206Y136816D01*
X350226Y136813D01*
X350365Y136826D01*
X350503Y136834D01*
X350522Y136841D01*
X350542Y136842D01*
X350674Y136890D01*
X350805Y136932D01*
X350823Y136943D01*
X350842Y136950D01*
X350957Y137028D01*
X351074Y137103D01*
X351088Y137117D01*
X351105Y137129D01*
X351197Y137233D01*
X351292Y137334D01*
X351302Y137352D01*
X351315Y137367D01*
X351379Y137491D01*
X351446Y137613D01*
X351451Y137632D01*
X351460Y137650D01*
X351490Y137786D01*
X351525Y137921D01*
X351527Y137949D01*
X351530Y137961D01*
X351529Y137981D01*
X351535Y138081D01*
X351535Y141519D01*
X352927Y144880D01*
X355150Y147103D01*
X355223Y147197D01*
X355302Y147286D01*
X355320Y147322D01*
X355345Y147354D01*
X355392Y147463D01*
X355446Y147569D01*
X355455Y147609D01*
X355471Y147646D01*
X355490Y147763D01*
X355516Y147879D01*
X355515Y147920D01*
X355521Y147960D01*
X355510Y148078D01*
X355506Y148197D01*
X355495Y148236D01*
X355491Y148276D01*
X355451Y148389D01*
X355418Y148503D01*
X355397Y148538D01*
X355384Y148576D01*
X355317Y148674D01*
X355256Y148777D01*
X355217Y148822D01*
X355205Y148839D01*
X355190Y148852D01*
X355150Y148898D01*
X329414Y174634D01*
X329336Y174694D01*
X329264Y174762D01*
X329211Y174791D01*
X329163Y174828D01*
X329072Y174868D01*
X328985Y174916D01*
X328927Y174931D01*
X328871Y174955D01*
X328773Y174970D01*
X328677Y174995D01*
X328577Y175001D01*
X328557Y175005D01*
X328545Y175003D01*
X328517Y175005D01*
X301602Y175005D01*
X301573Y175002D01*
X301543Y175004D01*
X301415Y174982D01*
X301287Y174965D01*
X301259Y174955D01*
X301230Y174950D01*
X301111Y174896D01*
X300991Y174848D01*
X300967Y174831D01*
X300940Y174819D01*
X300839Y174738D01*
X300734Y174662D01*
X300715Y174639D01*
X300692Y174620D01*
X300614Y174517D01*
X300531Y174417D01*
X300518Y174390D01*
X300500Y174366D01*
X300429Y174222D01*
X299785Y172665D01*
X297235Y170115D01*
X293903Y168735D01*
X290297Y168735D01*
X286965Y170115D01*
X284415Y172665D01*
X283035Y175997D01*
X283035Y179603D01*
X284415Y182935D01*
X286965Y185485D01*
X290297Y186865D01*
X293903Y186865D01*
X297235Y185485D01*
X299785Y182935D01*
X300429Y181378D01*
X300444Y181353D01*
X300453Y181325D01*
X300523Y181215D01*
X300587Y181102D01*
X300608Y181081D01*
X300623Y181056D01*
X300718Y180967D01*
X300808Y180874D01*
X300833Y180858D01*
X300855Y180838D01*
X300969Y180775D01*
X301079Y180707D01*
X301108Y180699D01*
X301133Y180684D01*
X301259Y180652D01*
X301383Y180614D01*
X301413Y180612D01*
X301441Y180605D01*
X301602Y180595D01*
X331358Y180595D01*
X362736Y149216D01*
X362814Y149156D01*
X362886Y149088D01*
X362939Y149059D01*
X362987Y149022D01*
X363078Y148982D01*
X363165Y148934D01*
X363223Y148919D01*
X363279Y148895D01*
X363377Y148880D01*
X363473Y148855D01*
X363573Y148849D01*
X363593Y148845D01*
X363605Y148847D01*
X363633Y148845D01*
X377739Y148845D01*
X381100Y147453D01*
X383673Y144880D01*
X385065Y141519D01*
X385065Y137881D01*
X383673Y134520D01*
X381100Y131947D01*
X377739Y130555D01*
X359061Y130555D01*
X358924Y130538D01*
X358785Y130525D01*
X358766Y130518D01*
X358746Y130515D01*
X358617Y130464D01*
X358486Y130417D01*
X358469Y130406D01*
X358450Y130398D01*
X358338Y130317D01*
X358223Y130239D01*
X358209Y130223D01*
X358193Y130212D01*
X358104Y130104D01*
X358012Y130000D01*
X358003Y129982D01*
X357990Y129967D01*
X357931Y129841D01*
X357867Y129717D01*
X357863Y129697D01*
X357854Y129679D01*
X357828Y129543D01*
X357798Y129407D01*
X357798Y129386D01*
X357795Y129367D01*
X357803Y129228D01*
X357807Y129089D01*
X357813Y129069D01*
X357814Y129049D01*
X357857Y128917D01*
X357896Y128783D01*
X357906Y128766D01*
X357912Y128747D01*
X357987Y128629D01*
X358057Y128509D01*
X358076Y128488D01*
X358083Y128478D01*
X358098Y128464D01*
X358164Y128389D01*
X362736Y123816D01*
X362814Y123756D01*
X362886Y123688D01*
X362939Y123659D01*
X362987Y123622D01*
X363078Y123582D01*
X363165Y123534D01*
X363223Y123519D01*
X363279Y123495D01*
X363377Y123480D01*
X363473Y123455D01*
X363573Y123449D01*
X363593Y123445D01*
X363605Y123447D01*
X363633Y123445D01*
X377739Y123445D01*
X381100Y122053D01*
X383673Y119480D01*
X385065Y116119D01*
X385065Y112481D01*
X383673Y109120D01*
X381100Y106547D01*
X377739Y105155D01*
X358861Y105155D01*
G37*
%LPD*%
%LPC*%
G36*
X392644Y172493D02*
X392644Y172493D01*
X390694Y173301D01*
X389201Y174794D01*
X388393Y176744D01*
X388393Y177551D01*
X388381Y177649D01*
X388378Y177748D01*
X388361Y177806D01*
X388353Y177867D01*
X388317Y177959D01*
X388289Y178054D01*
X388259Y178106D01*
X388236Y178162D01*
X388178Y178242D01*
X388128Y178328D01*
X388062Y178403D01*
X388050Y178420D01*
X388040Y178427D01*
X388022Y178449D01*
X377443Y189027D01*
X377443Y270935D01*
X377431Y271033D01*
X377428Y271132D01*
X377411Y271191D01*
X377403Y271251D01*
X377367Y271343D01*
X377339Y271438D01*
X377309Y271490D01*
X377286Y271546D01*
X377228Y271626D01*
X377178Y271712D01*
X377112Y271787D01*
X377100Y271804D01*
X377090Y271812D01*
X377072Y271833D01*
X372871Y276033D01*
X372871Y282767D01*
X377633Y287529D01*
X384367Y287529D01*
X389129Y282767D01*
X389129Y276033D01*
X384928Y271833D01*
X384868Y271754D01*
X384800Y271682D01*
X384771Y271629D01*
X384734Y271581D01*
X384694Y271490D01*
X384646Y271404D01*
X384631Y271345D01*
X384607Y271290D01*
X384592Y271192D01*
X384567Y271096D01*
X384561Y270996D01*
X384557Y270976D01*
X384559Y270963D01*
X384557Y270935D01*
X384557Y192499D01*
X384569Y192401D01*
X384572Y192302D01*
X384589Y192244D01*
X384597Y192183D01*
X384633Y192091D01*
X384661Y191996D01*
X384691Y191944D01*
X384714Y191888D01*
X384772Y191808D01*
X384822Y191722D01*
X384888Y191647D01*
X384900Y191630D01*
X384910Y191623D01*
X384928Y191601D01*
X393051Y183478D01*
X393130Y183418D01*
X393202Y183350D01*
X393255Y183321D01*
X393303Y183284D01*
X393394Y183244D01*
X393480Y183196D01*
X393539Y183181D01*
X393595Y183157D01*
X393693Y183142D01*
X393788Y183117D01*
X393888Y183111D01*
X393909Y183107D01*
X393921Y183109D01*
X393949Y183107D01*
X394756Y183107D01*
X396706Y182299D01*
X398199Y180806D01*
X399007Y178856D01*
X399007Y176744D01*
X398199Y174794D01*
X396706Y173301D01*
X394756Y172493D01*
X392644Y172493D01*
G37*
%LPD*%
%LPC*%
G36*
X150707Y42798D02*
X150707Y42798D01*
X147580Y44094D01*
X145186Y46488D01*
X143890Y49615D01*
X143890Y53001D01*
X144089Y53481D01*
X144097Y53509D01*
X144110Y53536D01*
X144139Y53662D01*
X144173Y53788D01*
X144174Y53817D01*
X144180Y53846D01*
X144176Y53976D01*
X144178Y54106D01*
X144171Y54134D01*
X144170Y54164D01*
X144134Y54288D01*
X144104Y54415D01*
X144090Y54441D01*
X144082Y54469D01*
X144016Y54581D01*
X143955Y54696D01*
X143935Y54718D01*
X143920Y54743D01*
X143814Y54864D01*
X126407Y72272D01*
X126328Y72332D01*
X126256Y72400D01*
X126203Y72429D01*
X126155Y72466D01*
X126064Y72506D01*
X125978Y72554D01*
X125919Y72569D01*
X125863Y72593D01*
X125765Y72608D01*
X125670Y72633D01*
X125570Y72639D01*
X125549Y72643D01*
X125537Y72641D01*
X125509Y72643D01*
X124948Y72643D01*
X124918Y72640D01*
X124889Y72642D01*
X124761Y72620D01*
X124632Y72603D01*
X124605Y72593D01*
X124576Y72588D01*
X124457Y72534D01*
X124336Y72486D01*
X124313Y72469D01*
X124286Y72457D01*
X124184Y72376D01*
X124079Y72300D01*
X124060Y72277D01*
X124037Y72258D01*
X123959Y72155D01*
X123876Y72055D01*
X123864Y72028D01*
X123846Y72004D01*
X123775Y71860D01*
X123129Y70301D01*
X120199Y67371D01*
X116372Y65785D01*
X112228Y65785D01*
X108401Y67371D01*
X105471Y70301D01*
X103885Y74128D01*
X103885Y78272D01*
X105471Y82099D01*
X108401Y85029D01*
X112228Y86615D01*
X116372Y86615D01*
X120199Y85029D01*
X123129Y82099D01*
X123775Y80540D01*
X123790Y80515D01*
X123799Y80487D01*
X123868Y80377D01*
X123933Y80264D01*
X123953Y80243D01*
X123969Y80218D01*
X124064Y80129D01*
X124154Y80036D01*
X124179Y80020D01*
X124201Y80000D01*
X124314Y79937D01*
X124425Y79869D01*
X124453Y79861D01*
X124479Y79846D01*
X124605Y79814D01*
X124729Y79776D01*
X124758Y79774D01*
X124787Y79767D01*
X124948Y79757D01*
X128981Y79757D01*
X148844Y59894D01*
X148867Y59876D01*
X148886Y59853D01*
X148992Y59779D01*
X149095Y59699D01*
X149122Y59687D01*
X149146Y59670D01*
X149268Y59624D01*
X149387Y59573D01*
X149416Y59568D01*
X149444Y59558D01*
X149573Y59543D01*
X149701Y59523D01*
X149731Y59526D01*
X149760Y59522D01*
X149888Y59540D01*
X150018Y59553D01*
X150046Y59563D01*
X150075Y59567D01*
X150227Y59619D01*
X150707Y59818D01*
X154093Y59818D01*
X157220Y58522D01*
X159614Y56128D01*
X160910Y53001D01*
X160910Y49615D01*
X159614Y46488D01*
X157220Y44094D01*
X154093Y42798D01*
X150707Y42798D01*
G37*
%LPD*%
%LPC*%
G36*
X214844Y70893D02*
X214844Y70893D01*
X212894Y71701D01*
X211401Y73194D01*
X210593Y75144D01*
X210593Y77256D01*
X211401Y79206D01*
X212894Y80699D01*
X214844Y81507D01*
X216956Y81507D01*
X218906Y80699D01*
X220238Y79366D01*
X220317Y79306D01*
X220389Y79238D01*
X220442Y79209D01*
X220490Y79172D01*
X220581Y79132D01*
X220667Y79084D01*
X220726Y79069D01*
X220782Y79045D01*
X220879Y79030D01*
X220975Y79005D01*
X221075Y78999D01*
X221096Y78995D01*
X221108Y78997D01*
X221136Y78995D01*
X265017Y78995D01*
X265115Y79007D01*
X265214Y79010D01*
X265272Y79027D01*
X265332Y79035D01*
X265424Y79071D01*
X265519Y79099D01*
X265572Y79129D01*
X265628Y79152D01*
X265708Y79210D01*
X265793Y79260D01*
X265869Y79326D01*
X265885Y79338D01*
X265893Y79348D01*
X265914Y79366D01*
X283405Y96857D01*
X283423Y96881D01*
X283445Y96900D01*
X283520Y97006D01*
X283530Y97019D01*
X283563Y97058D01*
X283566Y97065D01*
X283600Y97108D01*
X283612Y97136D01*
X283629Y97160D01*
X283674Y97281D01*
X283726Y97400D01*
X283731Y97430D01*
X283741Y97457D01*
X283756Y97586D01*
X283776Y97714D01*
X283773Y97744D01*
X283776Y97773D01*
X283758Y97902D01*
X283746Y98031D01*
X283736Y98059D01*
X283732Y98088D01*
X283680Y98240D01*
X283035Y99797D01*
X283035Y103403D01*
X284415Y106735D01*
X286965Y109285D01*
X290297Y110665D01*
X293903Y110665D01*
X297235Y109285D01*
X299785Y106735D01*
X301165Y103403D01*
X301165Y99797D01*
X299785Y96465D01*
X297235Y93915D01*
X293903Y92535D01*
X290297Y92535D01*
X288740Y93180D01*
X288712Y93188D01*
X288686Y93201D01*
X288559Y93230D01*
X288434Y93264D01*
X288404Y93264D01*
X288375Y93271D01*
X288246Y93267D01*
X288116Y93269D01*
X288087Y93262D01*
X288057Y93261D01*
X287933Y93225D01*
X287806Y93195D01*
X287780Y93181D01*
X287752Y93173D01*
X287640Y93107D01*
X287525Y93046D01*
X287504Y93026D01*
X287478Y93011D01*
X287357Y92905D01*
X267858Y73405D01*
X221136Y73405D01*
X221038Y73393D01*
X220939Y73390D01*
X220880Y73373D01*
X220820Y73365D01*
X220728Y73329D01*
X220633Y73301D01*
X220581Y73271D01*
X220525Y73248D01*
X220445Y73190D01*
X220359Y73140D01*
X220284Y73074D01*
X220267Y73062D01*
X220260Y73052D01*
X220238Y73034D01*
X218906Y71701D01*
X216956Y70893D01*
X214844Y70893D01*
G37*
%LPD*%
%LPC*%
G36*
X316444Y58193D02*
X316444Y58193D01*
X314494Y59001D01*
X313001Y60494D01*
X312193Y62444D01*
X312193Y64556D01*
X313001Y66506D01*
X313572Y67076D01*
X313632Y67155D01*
X313700Y67227D01*
X313729Y67280D01*
X313766Y67328D01*
X313806Y67419D01*
X313854Y67505D01*
X313869Y67564D01*
X313893Y67620D01*
X313908Y67717D01*
X313933Y67813D01*
X313939Y67913D01*
X313943Y67934D01*
X313941Y67946D01*
X313943Y67974D01*
X313943Y122526D01*
X313931Y122624D01*
X313928Y122723D01*
X313911Y122782D01*
X313903Y122842D01*
X313867Y122934D01*
X313839Y123029D01*
X313809Y123081D01*
X313786Y123137D01*
X313728Y123217D01*
X313678Y123303D01*
X313612Y123378D01*
X313600Y123395D01*
X313590Y123403D01*
X313571Y123424D01*
X313001Y123994D01*
X312193Y125944D01*
X312193Y128056D01*
X313001Y130006D01*
X314494Y131499D01*
X316444Y132307D01*
X318556Y132307D01*
X320506Y131499D01*
X321999Y130006D01*
X322807Y128056D01*
X322807Y125944D01*
X321999Y123994D01*
X321429Y123424D01*
X321368Y123346D01*
X321300Y123273D01*
X321271Y123220D01*
X321234Y123172D01*
X321194Y123081D01*
X321146Y122995D01*
X321131Y122936D01*
X321107Y122881D01*
X321092Y122783D01*
X321067Y122687D01*
X321061Y122587D01*
X321057Y122566D01*
X321059Y122554D01*
X321057Y122526D01*
X321057Y67974D01*
X321069Y67876D01*
X321072Y67777D01*
X321089Y67718D01*
X321097Y67658D01*
X321133Y67566D01*
X321161Y67471D01*
X321191Y67419D01*
X321214Y67363D01*
X321272Y67283D01*
X321322Y67197D01*
X321388Y67122D01*
X321400Y67105D01*
X321410Y67098D01*
X321428Y67076D01*
X321999Y66506D01*
X322807Y64556D01*
X322807Y62444D01*
X321999Y60494D01*
X320506Y59001D01*
X318556Y58193D01*
X316444Y58193D01*
G37*
%LPD*%
%LPC*%
G36*
X138644Y324893D02*
X138644Y324893D01*
X136694Y325701D01*
X135201Y327194D01*
X134393Y329144D01*
X134393Y331256D01*
X135201Y333206D01*
X136534Y334538D01*
X136594Y334617D01*
X136662Y334689D01*
X136691Y334742D01*
X136728Y334790D01*
X136768Y334881D01*
X136816Y334967D01*
X136831Y335026D01*
X136855Y335082D01*
X136870Y335179D01*
X136895Y335275D01*
X136901Y335375D01*
X136905Y335396D01*
X136903Y335408D01*
X136905Y335436D01*
X136905Y366617D01*
X136893Y366715D01*
X136890Y366814D01*
X136873Y366872D01*
X136865Y366932D01*
X136829Y367024D01*
X136801Y367119D01*
X136771Y367172D01*
X136748Y367228D01*
X136690Y367308D01*
X136640Y367393D01*
X136574Y367469D01*
X136562Y367485D01*
X136552Y367493D01*
X136534Y367514D01*
X131548Y372500D01*
X131470Y372560D01*
X131398Y372628D01*
X131345Y372657D01*
X131297Y372694D01*
X131206Y372734D01*
X131119Y372782D01*
X131061Y372797D01*
X131005Y372821D01*
X130907Y372836D01*
X130811Y372861D01*
X130711Y372867D01*
X130691Y372871D01*
X130679Y372869D01*
X130651Y372871D01*
X123633Y372871D01*
X118871Y377633D01*
X118871Y384367D01*
X123633Y389129D01*
X130367Y389129D01*
X135129Y384367D01*
X135129Y377349D01*
X135141Y377251D01*
X135144Y377152D01*
X135161Y377094D01*
X135169Y377034D01*
X135205Y376942D01*
X135233Y376847D01*
X135263Y376794D01*
X135286Y376738D01*
X135344Y376658D01*
X135394Y376573D01*
X135460Y376497D01*
X135472Y376481D01*
X135482Y376473D01*
X135500Y376452D01*
X140486Y371466D01*
X142495Y369458D01*
X142495Y335436D01*
X142507Y335338D01*
X142510Y335239D01*
X142527Y335180D01*
X142535Y335120D01*
X142571Y335028D01*
X142599Y334933D01*
X142629Y334881D01*
X142652Y334825D01*
X142710Y334745D01*
X142760Y334659D01*
X142826Y334584D01*
X142838Y334567D01*
X142848Y334560D01*
X142866Y334538D01*
X144199Y333206D01*
X145007Y331256D01*
X145007Y329144D01*
X144199Y327194D01*
X142706Y325701D01*
X140756Y324893D01*
X138644Y324893D01*
G37*
%LPD*%
%LPC*%
G36*
X240244Y185193D02*
X240244Y185193D01*
X238294Y186001D01*
X236801Y187494D01*
X235993Y189444D01*
X235993Y191556D01*
X236801Y193506D01*
X238134Y194838D01*
X238194Y194917D01*
X238262Y194989D01*
X238291Y195042D01*
X238328Y195090D01*
X238368Y195181D01*
X238416Y195267D01*
X238431Y195326D01*
X238455Y195382D01*
X238470Y195479D01*
X238495Y195575D01*
X238501Y195675D01*
X238505Y195696D01*
X238503Y195708D01*
X238505Y195736D01*
X238505Y261464D01*
X238493Y261562D01*
X238490Y261661D01*
X238473Y261720D01*
X238465Y261780D01*
X238429Y261872D01*
X238401Y261967D01*
X238379Y262005D01*
X238377Y262012D01*
X238368Y262025D01*
X238348Y262075D01*
X238290Y262155D01*
X238240Y262241D01*
X238211Y262274D01*
X238207Y262280D01*
X238197Y262289D01*
X238174Y262316D01*
X238162Y262333D01*
X238152Y262340D01*
X238134Y262362D01*
X236801Y263694D01*
X235993Y265644D01*
X235993Y267756D01*
X236801Y269706D01*
X238294Y271199D01*
X240244Y272007D01*
X242356Y272007D01*
X244306Y271199D01*
X245799Y269706D01*
X246607Y267756D01*
X246607Y265644D01*
X245799Y263694D01*
X244466Y262362D01*
X244406Y262283D01*
X244338Y262211D01*
X244316Y262171D01*
X244301Y262153D01*
X244295Y262140D01*
X244272Y262110D01*
X244232Y262019D01*
X244184Y261933D01*
X244169Y261874D01*
X244167Y261870D01*
X244165Y261865D01*
X244165Y261864D01*
X244145Y261818D01*
X244130Y261721D01*
X244105Y261625D01*
X244099Y261525D01*
X244095Y261504D01*
X244097Y261492D01*
X244095Y261464D01*
X244095Y195736D01*
X244107Y195638D01*
X244110Y195539D01*
X244127Y195480D01*
X244135Y195420D01*
X244171Y195328D01*
X244199Y195233D01*
X244229Y195181D01*
X244252Y195125D01*
X244310Y195045D01*
X244360Y194959D01*
X244426Y194884D01*
X244438Y194867D01*
X244448Y194860D01*
X244466Y194838D01*
X245799Y193506D01*
X246607Y191556D01*
X246607Y189444D01*
X245799Y187494D01*
X244306Y186001D01*
X242356Y185193D01*
X240244Y185193D01*
G37*
%LPD*%
%LPC*%
G36*
X201381Y453135D02*
X201381Y453135D01*
X198020Y454527D01*
X195447Y457100D01*
X194055Y460461D01*
X194055Y479339D01*
X195447Y482700D01*
X198020Y485273D01*
X201381Y486665D01*
X205019Y486665D01*
X208380Y485273D01*
X210953Y482700D01*
X212345Y479339D01*
X212345Y460461D01*
X210953Y457100D01*
X208380Y454527D01*
X205019Y453135D01*
X201381Y453135D01*
G37*
%LPD*%
%LPC*%
G36*
X226781Y453135D02*
X226781Y453135D01*
X223420Y454527D01*
X220847Y457100D01*
X219455Y460461D01*
X219455Y479339D01*
X220847Y482700D01*
X223420Y485273D01*
X226781Y486665D01*
X230419Y486665D01*
X233780Y485273D01*
X236353Y482700D01*
X237745Y479339D01*
X237745Y460461D01*
X236353Y457100D01*
X233780Y454527D01*
X230419Y453135D01*
X226781Y453135D01*
G37*
%LPD*%
%LPC*%
G36*
X460461Y155955D02*
X460461Y155955D01*
X457100Y157347D01*
X454527Y159920D01*
X453135Y163281D01*
X453135Y166919D01*
X454527Y170280D01*
X457100Y172853D01*
X460461Y174245D01*
X479339Y174245D01*
X482700Y172853D01*
X485273Y170280D01*
X486665Y166919D01*
X486665Y163281D01*
X485273Y159920D01*
X482700Y157347D01*
X479339Y155955D01*
X460461Y155955D01*
G37*
%LPD*%
%LPC*%
G36*
X460461Y257555D02*
X460461Y257555D01*
X457100Y258947D01*
X454527Y261520D01*
X453135Y264881D01*
X453135Y268519D01*
X454527Y271880D01*
X457100Y274453D01*
X460461Y275845D01*
X479339Y275845D01*
X482700Y274453D01*
X485273Y271880D01*
X486665Y268519D01*
X486665Y264881D01*
X485273Y261520D01*
X482700Y258947D01*
X479339Y257555D01*
X460461Y257555D01*
G37*
%LPD*%
%LPC*%
G36*
X460461Y181355D02*
X460461Y181355D01*
X457100Y182747D01*
X454527Y185320D01*
X453135Y188681D01*
X453135Y192319D01*
X454527Y195680D01*
X457100Y198253D01*
X460461Y199645D01*
X479339Y199645D01*
X482700Y198253D01*
X485273Y195680D01*
X486665Y192319D01*
X486665Y188681D01*
X485273Y185320D01*
X482700Y182747D01*
X479339Y181355D01*
X460461Y181355D01*
G37*
%LPD*%
%LPC*%
G36*
X460461Y206755D02*
X460461Y206755D01*
X457100Y208147D01*
X454527Y210720D01*
X453135Y214081D01*
X453135Y217719D01*
X454527Y221080D01*
X457100Y223653D01*
X460461Y225045D01*
X479339Y225045D01*
X482700Y223653D01*
X485273Y221080D01*
X486665Y217719D01*
X486665Y214081D01*
X485273Y210720D01*
X482700Y208147D01*
X479339Y206755D01*
X460461Y206755D01*
G37*
%LPD*%
%LPC*%
G36*
X257261Y41655D02*
X257261Y41655D01*
X253900Y43047D01*
X251327Y45620D01*
X249935Y48981D01*
X249935Y52619D01*
X251327Y55980D01*
X253900Y58553D01*
X257261Y59945D01*
X276139Y59945D01*
X279500Y58553D01*
X282073Y55980D01*
X283465Y52619D01*
X283465Y48981D01*
X282073Y45620D01*
X279500Y43047D01*
X276139Y41655D01*
X257261Y41655D01*
G37*
%LPD*%
%LPC*%
G36*
X460461Y359155D02*
X460461Y359155D01*
X457100Y360547D01*
X454527Y363120D01*
X453135Y366481D01*
X453135Y370119D01*
X454527Y373480D01*
X457100Y376053D01*
X460461Y377445D01*
X479339Y377445D01*
X482700Y376053D01*
X485273Y373480D01*
X486665Y370119D01*
X486665Y366481D01*
X485273Y363120D01*
X482700Y360547D01*
X479339Y359155D01*
X460461Y359155D01*
G37*
%LPD*%
%LPC*%
G36*
X460461Y333755D02*
X460461Y333755D01*
X457100Y335147D01*
X454527Y337720D01*
X453135Y341081D01*
X453135Y344719D01*
X454527Y348080D01*
X457100Y350653D01*
X460461Y352045D01*
X479339Y352045D01*
X482700Y350653D01*
X485273Y348080D01*
X486665Y344719D01*
X486665Y341081D01*
X485273Y337720D01*
X482700Y335147D01*
X479339Y333755D01*
X460461Y333755D01*
G37*
%LPD*%
%LPC*%
G36*
X460461Y308355D02*
X460461Y308355D01*
X457100Y309747D01*
X454527Y312320D01*
X453135Y315681D01*
X453135Y319319D01*
X454527Y322680D01*
X457100Y325253D01*
X460461Y326645D01*
X479339Y326645D01*
X482700Y325253D01*
X485273Y322680D01*
X486665Y319319D01*
X486665Y315681D01*
X485273Y312320D01*
X482700Y309747D01*
X479339Y308355D01*
X460461Y308355D01*
G37*
%LPD*%
%LPC*%
G36*
X460461Y282955D02*
X460461Y282955D01*
X457100Y284347D01*
X454527Y286920D01*
X453135Y290281D01*
X453135Y293919D01*
X454527Y297280D01*
X457100Y299853D01*
X460461Y301245D01*
X479339Y301245D01*
X482700Y299853D01*
X485273Y297280D01*
X486665Y293919D01*
X486665Y290281D01*
X485273Y286920D01*
X482700Y284347D01*
X479339Y282955D01*
X460461Y282955D01*
G37*
%LPD*%
%LPC*%
G36*
X460461Y232155D02*
X460461Y232155D01*
X457100Y233547D01*
X454527Y236120D01*
X453135Y239481D01*
X453135Y243119D01*
X454527Y246480D01*
X457100Y249053D01*
X460461Y250445D01*
X479339Y250445D01*
X482700Y249053D01*
X485273Y246480D01*
X486665Y243119D01*
X486665Y239481D01*
X485273Y236120D01*
X482700Y233547D01*
X479339Y232155D01*
X460461Y232155D01*
G37*
%LPD*%
%LPC*%
G36*
X62444Y121693D02*
X62444Y121693D01*
X60494Y122501D01*
X59001Y123994D01*
X58193Y125944D01*
X58193Y128056D01*
X59001Y130006D01*
X59572Y130576D01*
X59632Y130655D01*
X59700Y130727D01*
X59729Y130780D01*
X59766Y130828D01*
X59806Y130919D01*
X59854Y131005D01*
X59869Y131064D01*
X59893Y131120D01*
X59908Y131217D01*
X59933Y131313D01*
X59939Y131413D01*
X59943Y131434D01*
X59941Y131446D01*
X59943Y131474D01*
X59943Y173326D01*
X59931Y173424D01*
X59928Y173523D01*
X59911Y173582D01*
X59903Y173642D01*
X59867Y173734D01*
X59839Y173829D01*
X59809Y173881D01*
X59786Y173937D01*
X59728Y174017D01*
X59678Y174103D01*
X59612Y174178D01*
X59600Y174195D01*
X59590Y174202D01*
X59572Y174224D01*
X59001Y174794D01*
X58193Y176744D01*
X58193Y178856D01*
X59001Y180806D01*
X60494Y182299D01*
X62444Y183107D01*
X64556Y183107D01*
X66506Y182299D01*
X67999Y180806D01*
X68807Y178856D01*
X68807Y176744D01*
X67999Y174794D01*
X67428Y174224D01*
X67368Y174145D01*
X67300Y174073D01*
X67271Y174020D01*
X67234Y173972D01*
X67194Y173881D01*
X67146Y173795D01*
X67131Y173736D01*
X67107Y173680D01*
X67092Y173583D01*
X67067Y173487D01*
X67061Y173387D01*
X67057Y173366D01*
X67059Y173354D01*
X67057Y173326D01*
X67057Y131474D01*
X67069Y131376D01*
X67072Y131277D01*
X67089Y131218D01*
X67097Y131158D01*
X67133Y131066D01*
X67161Y130971D01*
X67191Y130919D01*
X67214Y130863D01*
X67272Y130783D01*
X67322Y130697D01*
X67388Y130622D01*
X67400Y130605D01*
X67410Y130598D01*
X67428Y130576D01*
X67999Y130006D01*
X68807Y128056D01*
X68807Y125944D01*
X67999Y123994D01*
X66506Y122501D01*
X64556Y121693D01*
X62444Y121693D01*
G37*
%LPD*%
%LPC*%
G36*
X99276Y432815D02*
X99276Y432815D01*
X94981Y434594D01*
X91694Y437881D01*
X89915Y442176D01*
X89915Y446824D01*
X91694Y451119D01*
X94981Y454406D01*
X99276Y456185D01*
X103924Y456185D01*
X108219Y454406D01*
X111506Y451119D01*
X113285Y446824D01*
X113285Y442176D01*
X111506Y437881D01*
X108219Y434594D01*
X103924Y432815D01*
X99276Y432815D01*
G37*
%LPD*%
%LPC*%
G36*
X391376Y432815D02*
X391376Y432815D01*
X387081Y434594D01*
X383794Y437881D01*
X382015Y442176D01*
X382015Y446824D01*
X383794Y451119D01*
X387081Y454406D01*
X391376Y456185D01*
X396024Y456185D01*
X400319Y454406D01*
X403606Y451119D01*
X405385Y446824D01*
X405385Y442176D01*
X403606Y437881D01*
X400319Y434594D01*
X396024Y432815D01*
X391376Y432815D01*
G37*
%LPD*%
%LPC*%
G36*
X240244Y108993D02*
X240244Y108993D01*
X238294Y109801D01*
X236801Y111294D01*
X235993Y113244D01*
X235993Y115356D01*
X236801Y117306D01*
X238294Y118799D01*
X240244Y119607D01*
X242356Y119607D01*
X244306Y118799D01*
X244876Y118228D01*
X244955Y118168D01*
X245027Y118100D01*
X245080Y118071D01*
X245128Y118034D01*
X245219Y117994D01*
X245305Y117946D01*
X245364Y117931D01*
X245420Y117907D01*
X245517Y117892D01*
X245613Y117867D01*
X245713Y117861D01*
X245734Y117857D01*
X245746Y117859D01*
X245774Y117857D01*
X274926Y117857D01*
X275024Y117869D01*
X275123Y117872D01*
X275182Y117889D01*
X275242Y117897D01*
X275334Y117933D01*
X275429Y117961D01*
X275481Y117991D01*
X275537Y118014D01*
X275617Y118072D01*
X275703Y118122D01*
X275778Y118188D01*
X275795Y118200D01*
X275802Y118210D01*
X275824Y118228D01*
X276394Y118799D01*
X278344Y119607D01*
X280456Y119607D01*
X282406Y118799D01*
X283899Y117306D01*
X284707Y115356D01*
X284707Y113244D01*
X283899Y111294D01*
X282406Y109801D01*
X280456Y108993D01*
X278344Y108993D01*
X276394Y109801D01*
X275824Y110372D01*
X275745Y110432D01*
X275673Y110500D01*
X275620Y110529D01*
X275572Y110566D01*
X275481Y110606D01*
X275395Y110654D01*
X275336Y110669D01*
X275280Y110693D01*
X275183Y110708D01*
X275087Y110733D01*
X274987Y110739D01*
X274966Y110743D01*
X274954Y110741D01*
X274926Y110743D01*
X245774Y110743D01*
X245676Y110731D01*
X245577Y110728D01*
X245518Y110711D01*
X245458Y110703D01*
X245366Y110667D01*
X245271Y110639D01*
X245219Y110609D01*
X245163Y110586D01*
X245083Y110528D01*
X244997Y110478D01*
X244922Y110412D01*
X244905Y110400D01*
X244898Y110390D01*
X244876Y110372D01*
X244306Y109801D01*
X242356Y108993D01*
X240244Y108993D01*
G37*
%LPD*%
%LPC*%
G36*
X470368Y88645D02*
X470368Y88645D01*
X466541Y90231D01*
X463611Y93161D01*
X462025Y96988D01*
X462025Y101132D01*
X463611Y104959D01*
X466541Y107889D01*
X470368Y109475D01*
X474512Y109475D01*
X478339Y107889D01*
X481269Y104959D01*
X482855Y101132D01*
X482855Y96988D01*
X481269Y93161D01*
X478339Y90231D01*
X474512Y88645D01*
X470368Y88645D01*
G37*
%LPD*%
%LPC*%
G36*
X112228Y14985D02*
X112228Y14985D01*
X108401Y16571D01*
X105471Y19501D01*
X103885Y23328D01*
X103885Y27472D01*
X105471Y31299D01*
X108401Y34229D01*
X112228Y35815D01*
X116372Y35815D01*
X120199Y34229D01*
X123129Y31299D01*
X124715Y27472D01*
X124715Y23328D01*
X123129Y19501D01*
X120199Y16571D01*
X116372Y14985D01*
X112228Y14985D01*
G37*
%LPD*%
%LPC*%
G36*
X328128Y14985D02*
X328128Y14985D01*
X324301Y16571D01*
X321371Y19501D01*
X319785Y23328D01*
X319785Y27472D01*
X321371Y31299D01*
X324301Y34229D01*
X328128Y35815D01*
X332272Y35815D01*
X336099Y34229D01*
X339029Y31299D01*
X340615Y27472D01*
X340615Y23328D01*
X339029Y19501D01*
X336099Y16571D01*
X332272Y14985D01*
X328128Y14985D01*
G37*
%LPD*%
%LPC*%
G36*
X470368Y63245D02*
X470368Y63245D01*
X466541Y64831D01*
X463611Y67761D01*
X462025Y71588D01*
X462025Y75732D01*
X463611Y79559D01*
X466541Y82489D01*
X470368Y84075D01*
X474512Y84075D01*
X478339Y82489D01*
X481269Y79559D01*
X482855Y75732D01*
X482855Y71588D01*
X481269Y67761D01*
X478339Y64831D01*
X474512Y63245D01*
X470368Y63245D01*
G37*
%LPD*%
%LPC*%
G36*
X378928Y14985D02*
X378928Y14985D01*
X375101Y16571D01*
X372171Y19501D01*
X370585Y23328D01*
X370585Y27472D01*
X372171Y31299D01*
X375101Y34229D01*
X378928Y35815D01*
X383072Y35815D01*
X386899Y34229D01*
X389829Y31299D01*
X391415Y27472D01*
X391415Y23328D01*
X389829Y19501D01*
X386899Y16571D01*
X383072Y14985D01*
X378928Y14985D01*
G37*
%LPD*%
%LPC*%
G36*
X404328Y14985D02*
X404328Y14985D01*
X400501Y16571D01*
X397571Y19501D01*
X395985Y23328D01*
X395985Y27472D01*
X397571Y31299D01*
X400501Y34229D01*
X404328Y35815D01*
X408472Y35815D01*
X412299Y34229D01*
X415229Y31299D01*
X416815Y27472D01*
X416815Y23328D01*
X415229Y19501D01*
X412299Y16571D01*
X408472Y14985D01*
X404328Y14985D01*
G37*
%LPD*%
%LPC*%
G36*
X429728Y14985D02*
X429728Y14985D01*
X425901Y16571D01*
X422971Y19501D01*
X421385Y23328D01*
X421385Y27472D01*
X422971Y31299D01*
X425901Y34229D01*
X429728Y35815D01*
X433872Y35815D01*
X437699Y34229D01*
X440629Y31299D01*
X442215Y27472D01*
X442215Y23328D01*
X440629Y19501D01*
X437699Y16571D01*
X433872Y14985D01*
X429728Y14985D01*
G37*
%LPD*%
%LPC*%
G36*
X470368Y37845D02*
X470368Y37845D01*
X466541Y39431D01*
X463611Y42361D01*
X462025Y46188D01*
X462025Y50332D01*
X463611Y54159D01*
X466541Y57089D01*
X470368Y58675D01*
X474512Y58675D01*
X478339Y57089D01*
X481269Y54159D01*
X482855Y50332D01*
X482855Y46188D01*
X481269Y42361D01*
X478339Y39431D01*
X474512Y37845D01*
X470368Y37845D01*
G37*
%LPD*%
%LPC*%
G36*
X112228Y91185D02*
X112228Y91185D01*
X108401Y92771D01*
X105471Y95701D01*
X103885Y99528D01*
X103885Y103672D01*
X105471Y107499D01*
X108401Y110429D01*
X112228Y112015D01*
X116372Y112015D01*
X120199Y110429D01*
X123129Y107499D01*
X124715Y103672D01*
X124715Y99528D01*
X123129Y95701D01*
X120199Y92771D01*
X116372Y91185D01*
X112228Y91185D01*
G37*
%LPD*%
%LPC*%
G36*
X353528Y14985D02*
X353528Y14985D01*
X349701Y16571D01*
X346771Y19501D01*
X345185Y23328D01*
X345185Y27472D01*
X346771Y31299D01*
X349701Y34229D01*
X353528Y35815D01*
X357672Y35815D01*
X361499Y34229D01*
X364429Y31299D01*
X366015Y27472D01*
X366015Y23328D01*
X364429Y19501D01*
X361499Y16571D01*
X357672Y14985D01*
X353528Y14985D01*
G37*
%LPD*%
%LPC*%
G36*
X207728Y422735D02*
X207728Y422735D01*
X206835Y423628D01*
X206835Y439972D01*
X207728Y440865D01*
X224072Y440865D01*
X224965Y439972D01*
X224965Y423628D01*
X224072Y422735D01*
X207728Y422735D01*
G37*
%LPD*%
%LPC*%
G36*
X290297Y219535D02*
X290297Y219535D01*
X286965Y220915D01*
X284415Y223465D01*
X283035Y226797D01*
X283035Y230403D01*
X284415Y233735D01*
X286965Y236285D01*
X290297Y237665D01*
X293903Y237665D01*
X297235Y236285D01*
X299785Y233735D01*
X301165Y230403D01*
X301165Y226797D01*
X299785Y223465D01*
X297235Y220915D01*
X293903Y219535D01*
X290297Y219535D01*
G37*
%LPD*%
%LPC*%
G36*
X214097Y397335D02*
X214097Y397335D01*
X210765Y398715D01*
X208215Y401265D01*
X206835Y404597D01*
X206835Y408203D01*
X208215Y411535D01*
X210765Y414085D01*
X214097Y415465D01*
X217703Y415465D01*
X221035Y414085D01*
X223585Y411535D01*
X224965Y408203D01*
X224965Y404597D01*
X223585Y401265D01*
X221035Y398715D01*
X217703Y397335D01*
X214097Y397335D01*
G37*
%LPD*%
%LPC*%
G36*
X290297Y422735D02*
X290297Y422735D01*
X286965Y424115D01*
X284415Y426665D01*
X283035Y429997D01*
X283035Y433603D01*
X284415Y436935D01*
X286965Y439485D01*
X290297Y440865D01*
X293903Y440865D01*
X297235Y439485D01*
X299785Y436935D01*
X301165Y433603D01*
X301165Y429997D01*
X299785Y426665D01*
X297235Y424115D01*
X293903Y422735D01*
X290297Y422735D01*
G37*
%LPD*%
%LPC*%
G36*
X290297Y346535D02*
X290297Y346535D01*
X286965Y347915D01*
X284415Y350465D01*
X283035Y353797D01*
X283035Y357403D01*
X284415Y360735D01*
X286965Y363285D01*
X290297Y364665D01*
X293903Y364665D01*
X297235Y363285D01*
X299785Y360735D01*
X301165Y357403D01*
X301165Y353797D01*
X299785Y350465D01*
X297235Y347915D01*
X293903Y346535D01*
X290297Y346535D01*
G37*
%LPD*%
%LPC*%
G36*
X214097Y219535D02*
X214097Y219535D01*
X210765Y220915D01*
X208215Y223465D01*
X206835Y226797D01*
X206835Y230403D01*
X208215Y233735D01*
X210765Y236285D01*
X214097Y237665D01*
X217703Y237665D01*
X221035Y236285D01*
X223585Y233735D01*
X224965Y230403D01*
X224965Y226797D01*
X223585Y223465D01*
X221035Y220915D01*
X217703Y219535D01*
X214097Y219535D01*
G37*
%LPD*%
%LPC*%
G36*
X290297Y270335D02*
X290297Y270335D01*
X286965Y271715D01*
X284415Y274265D01*
X283035Y277597D01*
X283035Y281203D01*
X284415Y284535D01*
X286965Y287085D01*
X290297Y288465D01*
X293903Y288465D01*
X297235Y287085D01*
X299785Y284535D01*
X301165Y281203D01*
X301165Y277597D01*
X299785Y274265D01*
X297235Y271715D01*
X293903Y270335D01*
X290297Y270335D01*
G37*
%LPD*%
%LPC*%
G36*
X290297Y244935D02*
X290297Y244935D01*
X286965Y246315D01*
X284415Y248865D01*
X283035Y252197D01*
X283035Y255803D01*
X284415Y259135D01*
X286965Y261685D01*
X290297Y263065D01*
X293903Y263065D01*
X297235Y261685D01*
X299785Y259135D01*
X301165Y255803D01*
X301165Y252197D01*
X299785Y248865D01*
X297235Y246315D01*
X293903Y244935D01*
X290297Y244935D01*
G37*
%LPD*%
%LPC*%
G36*
X290297Y295735D02*
X290297Y295735D01*
X286965Y297115D01*
X284415Y299665D01*
X283035Y302997D01*
X283035Y306603D01*
X284415Y309935D01*
X286965Y312485D01*
X290297Y313865D01*
X293903Y313865D01*
X297235Y312485D01*
X299785Y309935D01*
X301165Y306603D01*
X301165Y302997D01*
X299785Y299665D01*
X297235Y297115D01*
X293903Y295735D01*
X290297Y295735D01*
G37*
%LPD*%
%LPC*%
G36*
X214097Y295735D02*
X214097Y295735D01*
X210765Y297115D01*
X208215Y299665D01*
X206835Y302997D01*
X206835Y306603D01*
X208215Y309935D01*
X210765Y312485D01*
X214097Y313865D01*
X217703Y313865D01*
X221035Y312485D01*
X223585Y309935D01*
X224965Y306603D01*
X224965Y302997D01*
X223585Y299665D01*
X221035Y297115D01*
X217703Y295735D01*
X214097Y295735D01*
G37*
%LPD*%
%LPC*%
G36*
X290297Y371935D02*
X290297Y371935D01*
X286965Y373315D01*
X284415Y375865D01*
X283035Y379197D01*
X283035Y382803D01*
X284415Y386135D01*
X286965Y388685D01*
X290297Y390065D01*
X293903Y390065D01*
X297235Y388685D01*
X299785Y386135D01*
X301165Y382803D01*
X301165Y379197D01*
X299785Y375865D01*
X297235Y373315D01*
X293903Y371935D01*
X290297Y371935D01*
G37*
%LPD*%
%LPC*%
G36*
X214097Y371935D02*
X214097Y371935D01*
X210765Y373315D01*
X208215Y375865D01*
X206835Y379197D01*
X206835Y382803D01*
X208215Y386135D01*
X210765Y388685D01*
X214097Y390065D01*
X217703Y390065D01*
X221035Y388685D01*
X223585Y386135D01*
X224965Y382803D01*
X224965Y379197D01*
X223585Y375865D01*
X221035Y373315D01*
X217703Y371935D01*
X214097Y371935D01*
G37*
%LPD*%
%LPC*%
G36*
X214097Y168735D02*
X214097Y168735D01*
X210765Y170115D01*
X208215Y172665D01*
X206835Y175997D01*
X206835Y179603D01*
X208215Y182935D01*
X210765Y185485D01*
X214097Y186865D01*
X217703Y186865D01*
X221035Y185485D01*
X223585Y182935D01*
X224965Y179603D01*
X224965Y175997D01*
X223585Y172665D01*
X221035Y170115D01*
X217703Y168735D01*
X214097Y168735D01*
G37*
%LPD*%
%LPC*%
G36*
X290297Y117935D02*
X290297Y117935D01*
X286965Y119315D01*
X284415Y121865D01*
X283035Y125197D01*
X283035Y128803D01*
X284415Y132135D01*
X286965Y134685D01*
X290297Y136065D01*
X293903Y136065D01*
X297235Y134685D01*
X299785Y132135D01*
X301165Y128803D01*
X301165Y125197D01*
X299785Y121865D01*
X297235Y119315D01*
X293903Y117935D01*
X290297Y117935D01*
G37*
%LPD*%
%LPC*%
G36*
X214097Y143335D02*
X214097Y143335D01*
X210765Y144715D01*
X208215Y147265D01*
X206835Y150597D01*
X206835Y154203D01*
X208215Y157535D01*
X210765Y160085D01*
X214097Y161465D01*
X217703Y161465D01*
X221035Y160085D01*
X223585Y157535D01*
X224965Y154203D01*
X224965Y150597D01*
X223585Y147265D01*
X221035Y144715D01*
X217703Y143335D01*
X214097Y143335D01*
G37*
%LPD*%
%LPC*%
G36*
X214097Y92535D02*
X214097Y92535D01*
X210765Y93915D01*
X208215Y96465D01*
X206835Y99797D01*
X206835Y103403D01*
X208215Y106735D01*
X210765Y109285D01*
X214097Y110665D01*
X217703Y110665D01*
X221035Y109285D01*
X223585Y106735D01*
X224965Y103403D01*
X224965Y99797D01*
X223585Y96465D01*
X221035Y93915D01*
X217703Y92535D01*
X214097Y92535D01*
G37*
%LPD*%
%LPC*%
G36*
X214097Y270335D02*
X214097Y270335D01*
X210765Y271715D01*
X208215Y274265D01*
X206835Y277597D01*
X206835Y281203D01*
X208215Y284535D01*
X210765Y287085D01*
X214097Y288465D01*
X217703Y288465D01*
X221035Y287085D01*
X223585Y284535D01*
X224965Y281203D01*
X224965Y277597D01*
X223585Y274265D01*
X221035Y271715D01*
X217703Y270335D01*
X214097Y270335D01*
G37*
%LPD*%
%LPC*%
G36*
X214097Y194135D02*
X214097Y194135D01*
X210765Y195515D01*
X208215Y198065D01*
X206835Y201397D01*
X206835Y205003D01*
X208215Y208335D01*
X210765Y210885D01*
X214097Y212265D01*
X217703Y212265D01*
X221035Y210885D01*
X223585Y208335D01*
X224965Y205003D01*
X224965Y201397D01*
X223585Y198065D01*
X221035Y195515D01*
X217703Y194135D01*
X214097Y194135D01*
G37*
%LPD*%
%LPC*%
G36*
X290297Y321135D02*
X290297Y321135D01*
X286965Y322515D01*
X284415Y325065D01*
X283035Y328397D01*
X283035Y332003D01*
X284415Y335335D01*
X286965Y337885D01*
X290297Y339265D01*
X293903Y339265D01*
X297235Y337885D01*
X299785Y335335D01*
X301165Y332003D01*
X301165Y328397D01*
X299785Y325065D01*
X297235Y322515D01*
X293903Y321135D01*
X290297Y321135D01*
G37*
%LPD*%
%LPC*%
G36*
X183727Y17652D02*
X183727Y17652D01*
X180600Y18948D01*
X178206Y21342D01*
X176910Y24469D01*
X176910Y27855D01*
X178206Y30982D01*
X180600Y33376D01*
X183727Y34672D01*
X187113Y34672D01*
X190240Y33376D01*
X192634Y30982D01*
X193930Y27855D01*
X193930Y24469D01*
X192634Y21342D01*
X190240Y18948D01*
X187113Y17652D01*
X183727Y17652D01*
G37*
%LPD*%
%LPC*%
G36*
X150707Y17652D02*
X150707Y17652D01*
X147580Y18948D01*
X145186Y21342D01*
X143890Y24469D01*
X143890Y27855D01*
X145186Y30982D01*
X147580Y33376D01*
X150707Y34672D01*
X154093Y34672D01*
X157220Y33376D01*
X159614Y30982D01*
X160910Y27855D01*
X160910Y24469D01*
X159614Y21342D01*
X157220Y18948D01*
X154093Y17652D01*
X150707Y17652D01*
G37*
%LPD*%
%LPC*%
G36*
X183727Y67690D02*
X183727Y67690D01*
X180600Y68986D01*
X178206Y71380D01*
X176910Y74507D01*
X176910Y77893D01*
X178206Y81020D01*
X180600Y83414D01*
X183727Y84710D01*
X187113Y84710D01*
X190240Y83414D01*
X192634Y81020D01*
X193930Y77893D01*
X193930Y74507D01*
X192634Y71380D01*
X190240Y68986D01*
X187113Y67690D01*
X183727Y67690D01*
G37*
%LPD*%
%LPC*%
G36*
X150707Y67690D02*
X150707Y67690D01*
X147580Y68986D01*
X145186Y71380D01*
X143890Y74507D01*
X143890Y77893D01*
X145186Y81020D01*
X147580Y83414D01*
X150707Y84710D01*
X154093Y84710D01*
X157220Y83414D01*
X159614Y81020D01*
X160910Y77893D01*
X160910Y74507D01*
X159614Y71380D01*
X157220Y68986D01*
X154093Y67690D01*
X150707Y67690D01*
G37*
%LPD*%
%LPC*%
G36*
X183727Y42798D02*
X183727Y42798D01*
X180600Y44094D01*
X178206Y46488D01*
X176910Y49615D01*
X176910Y53001D01*
X178206Y56128D01*
X180600Y58522D01*
X183727Y59818D01*
X187113Y59818D01*
X190240Y58522D01*
X192634Y56128D01*
X193930Y53001D01*
X193930Y49615D01*
X192634Y46488D01*
X190240Y44094D01*
X187113Y42798D01*
X183727Y42798D01*
G37*
%LPD*%
%LPC*%
G36*
X136333Y461771D02*
X136333Y461771D01*
X131571Y466533D01*
X131571Y473267D01*
X136333Y478029D01*
X143067Y478029D01*
X147829Y473267D01*
X147829Y466533D01*
X143067Y461771D01*
X136333Y461771D01*
G37*
%LPD*%
%LPC*%
G36*
X352233Y461771D02*
X352233Y461771D01*
X347471Y466533D01*
X347471Y473267D01*
X352233Y478029D01*
X358967Y478029D01*
X363729Y473267D01*
X363729Y466533D01*
X358967Y461771D01*
X352233Y461771D01*
G37*
%LPD*%
%LPC*%
G36*
X326833Y461771D02*
X326833Y461771D01*
X322071Y466533D01*
X322071Y473267D01*
X326833Y478029D01*
X333567Y478029D01*
X338329Y473267D01*
X338329Y466533D01*
X333567Y461771D01*
X326833Y461771D01*
G37*
%LPD*%
%LPC*%
G36*
X161733Y461771D02*
X161733Y461771D01*
X156971Y466533D01*
X156971Y473267D01*
X161733Y478029D01*
X168467Y478029D01*
X173229Y473267D01*
X173229Y466533D01*
X168467Y461771D01*
X161733Y461771D01*
G37*
%LPD*%
%LPC*%
G36*
X314133Y423671D02*
X314133Y423671D01*
X309371Y428433D01*
X309371Y435167D01*
X314133Y439929D01*
X320867Y439929D01*
X325629Y435167D01*
X325629Y428433D01*
X320867Y423671D01*
X314133Y423671D01*
G37*
%LPD*%
%LPC*%
G36*
X161733Y372871D02*
X161733Y372871D01*
X156971Y377633D01*
X156971Y384367D01*
X161733Y389129D01*
X168467Y389129D01*
X173229Y384367D01*
X173229Y377633D01*
X168467Y372871D01*
X161733Y372871D01*
G37*
%LPD*%
%LPC*%
G36*
X320483Y219201D02*
X320483Y219201D01*
X315721Y223963D01*
X315721Y230697D01*
X320483Y235459D01*
X327217Y235459D01*
X331979Y230697D01*
X331979Y223963D01*
X327217Y219201D01*
X320483Y219201D01*
G37*
%LPD*%
%LPC*%
G36*
X377633Y372871D02*
X377633Y372871D01*
X372871Y377633D01*
X372871Y384367D01*
X377633Y389129D01*
X384367Y389129D01*
X389129Y384367D01*
X389129Y377633D01*
X384367Y372871D01*
X377633Y372871D01*
G37*
%LPD*%
%LPC*%
G36*
X339533Y372871D02*
X339533Y372871D01*
X334771Y377633D01*
X334771Y384367D01*
X339533Y389129D01*
X346267Y389129D01*
X351029Y384367D01*
X351029Y377633D01*
X346267Y372871D01*
X339533Y372871D01*
G37*
%LPD*%
%LPC*%
G36*
X27939Y27939D02*
X27939Y27939D01*
X27939Y35561D01*
X33820Y35561D01*
X35399Y35311D01*
X36920Y34816D01*
X38345Y34090D01*
X39639Y33150D01*
X40770Y32019D01*
X41710Y30725D01*
X42436Y29300D01*
X42879Y27939D01*
X27939Y27939D01*
G37*
%LPD*%
%LPC*%
G36*
X269239Y27939D02*
X269239Y27939D01*
X269239Y35561D01*
X275120Y35561D01*
X276699Y35311D01*
X278220Y34816D01*
X279645Y34090D01*
X280939Y33150D01*
X282070Y32019D01*
X283010Y30725D01*
X283736Y29300D01*
X284179Y27939D01*
X269239Y27939D01*
G37*
%LPD*%
%LPC*%
G36*
X27939Y167639D02*
X27939Y167639D01*
X27939Y175261D01*
X33820Y175261D01*
X35399Y175011D01*
X36920Y174516D01*
X38345Y173790D01*
X39639Y172850D01*
X40770Y171719D01*
X41710Y170425D01*
X42436Y169000D01*
X42879Y167639D01*
X27939Y167639D01*
G37*
%LPD*%
%LPC*%
G36*
X27939Y142239D02*
X27939Y142239D01*
X27939Y149861D01*
X33820Y149861D01*
X35399Y149611D01*
X36920Y149116D01*
X38345Y148390D01*
X39639Y147450D01*
X40770Y146319D01*
X41710Y145025D01*
X42436Y143600D01*
X42879Y142239D01*
X27939Y142239D01*
G37*
%LPD*%
%LPC*%
G36*
X452421Y142239D02*
X452421Y142239D01*
X452864Y143600D01*
X453590Y145025D01*
X454530Y146319D01*
X455661Y147450D01*
X456955Y148390D01*
X458380Y149116D01*
X459901Y149611D01*
X461480Y149861D01*
X467361Y149861D01*
X467361Y142239D01*
X452421Y142239D01*
G37*
%LPD*%
%LPC*%
G36*
X249221Y27939D02*
X249221Y27939D01*
X249664Y29300D01*
X250390Y30725D01*
X251330Y32019D01*
X252461Y33150D01*
X253755Y34090D01*
X255180Y34816D01*
X256701Y35311D01*
X258280Y35561D01*
X264161Y35561D01*
X264161Y27939D01*
X249221Y27939D01*
G37*
%LPD*%
%LPC*%
G36*
X27939Y154939D02*
X27939Y154939D01*
X27939Y162561D01*
X42879Y162561D01*
X42436Y161200D01*
X41710Y159775D01*
X40770Y158481D01*
X39639Y157350D01*
X38345Y156410D01*
X36920Y155684D01*
X35399Y155189D01*
X33820Y154939D01*
X27939Y154939D01*
G37*
%LPD*%
%LPC*%
G36*
X27939Y15239D02*
X27939Y15239D01*
X27939Y22861D01*
X42879Y22861D01*
X42436Y21500D01*
X41710Y20075D01*
X40770Y18781D01*
X39639Y17650D01*
X38345Y16710D01*
X36920Y15984D01*
X35399Y15489D01*
X33820Y15239D01*
X27939Y15239D01*
G37*
%LPD*%
%LPC*%
G36*
X269239Y15239D02*
X269239Y15239D01*
X269239Y22861D01*
X284179Y22861D01*
X283736Y21500D01*
X283010Y20075D01*
X282070Y18781D01*
X280939Y17650D01*
X279645Y16710D01*
X278220Y15984D01*
X276699Y15489D01*
X275120Y15239D01*
X269239Y15239D01*
G37*
%LPD*%
%LPC*%
G36*
X27939Y129539D02*
X27939Y129539D01*
X27939Y137161D01*
X42879Y137161D01*
X42436Y135800D01*
X41710Y134375D01*
X40770Y133081D01*
X39639Y131950D01*
X38345Y131010D01*
X36920Y130284D01*
X35399Y129789D01*
X33820Y129539D01*
X27939Y129539D01*
G37*
%LPD*%
%LPC*%
G36*
X250100Y452864D02*
X250100Y452864D01*
X248675Y453590D01*
X247381Y454530D01*
X246250Y455661D01*
X245310Y456955D01*
X244584Y458380D01*
X244089Y459901D01*
X243839Y461480D01*
X243839Y467361D01*
X251461Y467361D01*
X251461Y452421D01*
X250100Y452864D01*
G37*
%LPD*%
%LPC*%
G36*
X258280Y15239D02*
X258280Y15239D01*
X256701Y15489D01*
X255180Y15984D01*
X253755Y16710D01*
X252461Y17650D01*
X251330Y18781D01*
X250390Y20075D01*
X249664Y21500D01*
X249221Y22861D01*
X264161Y22861D01*
X264161Y15239D01*
X258280Y15239D01*
G37*
%LPD*%
%LPC*%
G36*
X461480Y129539D02*
X461480Y129539D01*
X459901Y129789D01*
X458380Y130284D01*
X456955Y131010D01*
X455661Y131950D01*
X454530Y133081D01*
X453590Y134375D01*
X452864Y135800D01*
X452421Y137161D01*
X467361Y137161D01*
X467361Y129539D01*
X461480Y129539D01*
G37*
%LPD*%
%LPC*%
G36*
X307339Y27939D02*
X307339Y27939D01*
X307339Y36831D01*
X314024Y36831D01*
X314671Y36658D01*
X315250Y36323D01*
X315723Y35850D01*
X316058Y35271D01*
X316231Y34624D01*
X316231Y27939D01*
X307339Y27939D01*
G37*
%LPD*%
%LPC*%
G36*
X474979Y25399D02*
X474979Y25399D01*
X474979Y34291D01*
X481664Y34291D01*
X482311Y34118D01*
X482890Y33783D01*
X483363Y33310D01*
X483698Y32731D01*
X483871Y32084D01*
X483871Y25399D01*
X474979Y25399D01*
G37*
%LPD*%
%LPC*%
G36*
X461009Y25399D02*
X461009Y25399D01*
X461009Y32084D01*
X461182Y32731D01*
X461517Y33310D01*
X461990Y33783D01*
X462569Y34118D01*
X463216Y34291D01*
X469901Y34291D01*
X469901Y25399D01*
X461009Y25399D01*
G37*
%LPD*%
%LPC*%
G36*
X293369Y27939D02*
X293369Y27939D01*
X293369Y34624D01*
X293542Y35271D01*
X293877Y35850D01*
X294350Y36323D01*
X294929Y36658D01*
X295576Y36831D01*
X302261Y36831D01*
X302261Y27939D01*
X293369Y27939D01*
G37*
%LPD*%
%LPC*%
G36*
X307339Y13969D02*
X307339Y13969D01*
X307339Y22861D01*
X316231Y22861D01*
X316231Y16176D01*
X316058Y15529D01*
X315723Y14950D01*
X315250Y14477D01*
X314671Y14142D01*
X314024Y13969D01*
X307339Y13969D01*
G37*
%LPD*%
%LPC*%
G36*
X295576Y13969D02*
X295576Y13969D01*
X294929Y14142D01*
X294350Y14477D01*
X293877Y14950D01*
X293542Y15529D01*
X293369Y16176D01*
X293369Y22861D01*
X302261Y22861D01*
X302261Y13969D01*
X295576Y13969D01*
G37*
%LPD*%
%LPC*%
G36*
X27939Y447039D02*
X27939Y447039D01*
X27939Y456957D01*
X28374Y456888D01*
X30275Y456270D01*
X32057Y455363D01*
X33674Y454188D01*
X35088Y452774D01*
X36263Y451157D01*
X37170Y449375D01*
X37788Y447474D01*
X37857Y447039D01*
X27939Y447039D01*
G37*
%LPD*%
%LPC*%
G36*
X472439Y447039D02*
X472439Y447039D01*
X472439Y456957D01*
X472874Y456888D01*
X474775Y456270D01*
X476557Y455363D01*
X478174Y454188D01*
X479588Y452774D01*
X480763Y451157D01*
X481670Y449375D01*
X482288Y447474D01*
X482357Y447039D01*
X472439Y447039D01*
G37*
%LPD*%
%LPC*%
G36*
X12943Y447039D02*
X12943Y447039D01*
X13012Y447474D01*
X13630Y449375D01*
X14537Y451157D01*
X15712Y452774D01*
X17126Y454188D01*
X18743Y455363D01*
X20525Y456270D01*
X22426Y456888D01*
X22861Y456957D01*
X22861Y447039D01*
X12943Y447039D01*
G37*
%LPD*%
%LPC*%
G36*
X457443Y447039D02*
X457443Y447039D01*
X457512Y447474D01*
X458130Y449375D01*
X459037Y451157D01*
X460212Y452774D01*
X461626Y454188D01*
X463243Y455363D01*
X465025Y456270D01*
X466926Y456888D01*
X467361Y456957D01*
X467361Y447039D01*
X457443Y447039D01*
G37*
%LPD*%
%LPC*%
G36*
X472439Y441961D02*
X472439Y441961D01*
X482357Y441961D01*
X482288Y441526D01*
X481670Y439625D01*
X480763Y437843D01*
X479588Y436226D01*
X478174Y434812D01*
X476557Y433637D01*
X474775Y432730D01*
X472874Y432112D01*
X472439Y432043D01*
X472439Y441961D01*
G37*
%LPD*%
%LPC*%
G36*
X27939Y441961D02*
X27939Y441961D01*
X37857Y441961D01*
X37788Y441526D01*
X37170Y439625D01*
X36263Y437843D01*
X35088Y436226D01*
X33674Y434812D01*
X32057Y433637D01*
X30275Y432730D01*
X28374Y432112D01*
X27939Y432043D01*
X27939Y441961D01*
G37*
%LPD*%
%LPC*%
G36*
X466926Y432112D02*
X466926Y432112D01*
X465025Y432730D01*
X463243Y433637D01*
X461626Y434812D01*
X460212Y436226D01*
X459037Y437843D01*
X458130Y439625D01*
X457512Y441526D01*
X457443Y441961D01*
X467361Y441961D01*
X467361Y432043D01*
X466926Y432112D01*
G37*
%LPD*%
%LPC*%
G36*
X22426Y432112D02*
X22426Y432112D01*
X20525Y432730D01*
X18743Y433637D01*
X17126Y434812D01*
X15712Y436226D01*
X14537Y437843D01*
X13630Y439625D01*
X13012Y441526D01*
X12943Y441961D01*
X22861Y441961D01*
X22861Y432043D01*
X22426Y432112D01*
G37*
%LPD*%
%LPC*%
G36*
X116839Y53339D02*
X116839Y53339D01*
X116839Y61971D01*
X116977Y61949D01*
X118688Y61393D01*
X120291Y60577D01*
X121747Y59519D01*
X123019Y58247D01*
X124077Y56791D01*
X124893Y55188D01*
X125449Y53477D01*
X125471Y53339D01*
X116839Y53339D01*
G37*
%LPD*%
%LPC*%
G36*
X116839Y48261D02*
X116839Y48261D01*
X125471Y48261D01*
X125449Y48123D01*
X124893Y46412D01*
X124077Y44809D01*
X123019Y43353D01*
X121747Y42081D01*
X120291Y41023D01*
X118688Y40207D01*
X116977Y39651D01*
X116839Y39629D01*
X116839Y48261D01*
G37*
%LPD*%
%LPC*%
G36*
X103129Y53339D02*
X103129Y53339D01*
X103151Y53477D01*
X103707Y55188D01*
X104523Y56791D01*
X105581Y58247D01*
X106853Y59519D01*
X108309Y60577D01*
X109912Y61393D01*
X111623Y61949D01*
X111761Y61971D01*
X111761Y53339D01*
X103129Y53339D01*
G37*
%LPD*%
%LPC*%
G36*
X111623Y39651D02*
X111623Y39651D01*
X109912Y40207D01*
X108309Y41023D01*
X106853Y42081D01*
X105581Y43353D01*
X104523Y44809D01*
X103707Y46412D01*
X103151Y48123D01*
X103129Y48261D01*
X111761Y48261D01*
X111761Y39629D01*
X111623Y39651D01*
G37*
%LPD*%
%LPC*%
G36*
X294599Y408899D02*
X294599Y408899D01*
X294599Y416187D01*
X295970Y415742D01*
X297383Y415022D01*
X298667Y414089D01*
X299789Y412967D01*
X300722Y411683D01*
X301442Y410270D01*
X301887Y408899D01*
X294599Y408899D01*
G37*
%LPD*%
%LPC*%
G36*
X294599Y205699D02*
X294599Y205699D01*
X294599Y212987D01*
X295970Y212542D01*
X297383Y211822D01*
X298667Y210889D01*
X299789Y209767D01*
X300722Y208483D01*
X301442Y207070D01*
X301887Y205699D01*
X294599Y205699D01*
G37*
%LPD*%
%LPC*%
G36*
X218399Y256499D02*
X218399Y256499D01*
X218399Y263787D01*
X219770Y263342D01*
X221183Y262622D01*
X222467Y261689D01*
X223589Y260567D01*
X224522Y259283D01*
X225242Y257870D01*
X225687Y256499D01*
X218399Y256499D01*
G37*
%LPD*%
%LPC*%
G36*
X282313Y408899D02*
X282313Y408899D01*
X282758Y410270D01*
X283478Y411683D01*
X284411Y412967D01*
X285533Y414089D01*
X286817Y415022D01*
X288230Y415742D01*
X289601Y416187D01*
X289601Y408899D01*
X282313Y408899D01*
G37*
%LPD*%
%LPC*%
G36*
X206113Y256499D02*
X206113Y256499D01*
X206558Y257870D01*
X207278Y259283D01*
X208211Y260567D01*
X209333Y261689D01*
X210617Y262622D01*
X212030Y263342D01*
X213401Y263787D01*
X213401Y256499D01*
X206113Y256499D01*
G37*
%LPD*%
%LPC*%
G36*
X294599Y200701D02*
X294599Y200701D01*
X301887Y200701D01*
X301442Y199330D01*
X300722Y197917D01*
X299789Y196633D01*
X298667Y195511D01*
X297383Y194578D01*
X295970Y193858D01*
X294599Y193413D01*
X294599Y200701D01*
G37*
%LPD*%
%LPC*%
G36*
X218399Y251501D02*
X218399Y251501D01*
X225687Y251501D01*
X225242Y250130D01*
X224522Y248717D01*
X223589Y247433D01*
X222467Y246311D01*
X221183Y245378D01*
X219770Y244658D01*
X218399Y244213D01*
X218399Y251501D01*
G37*
%LPD*%
%LPC*%
G36*
X294599Y403901D02*
X294599Y403901D01*
X301887Y403901D01*
X301442Y402530D01*
X300722Y401117D01*
X299789Y399833D01*
X298667Y398711D01*
X297383Y397778D01*
X295970Y397058D01*
X294599Y396613D01*
X294599Y403901D01*
G37*
%LPD*%
%LPC*%
G36*
X282313Y205699D02*
X282313Y205699D01*
X282758Y207070D01*
X283478Y208483D01*
X284411Y209767D01*
X285533Y210889D01*
X286817Y211822D01*
X288230Y212542D01*
X289601Y212987D01*
X289601Y205699D01*
X282313Y205699D01*
G37*
%LPD*%
%LPC*%
G36*
X212030Y244658D02*
X212030Y244658D01*
X210617Y245378D01*
X209333Y246311D01*
X208211Y247433D01*
X207278Y248717D01*
X206558Y250130D01*
X206113Y251501D01*
X213401Y251501D01*
X213401Y244213D01*
X212030Y244658D01*
G37*
%LPD*%
%LPC*%
G36*
X288230Y397058D02*
X288230Y397058D01*
X286817Y397778D01*
X285533Y398711D01*
X284411Y399833D01*
X283478Y401117D01*
X282758Y402530D01*
X282313Y403901D01*
X289601Y403901D01*
X289601Y396613D01*
X288230Y397058D01*
G37*
%LPD*%
%LPC*%
G36*
X288230Y193858D02*
X288230Y193858D01*
X286817Y194578D01*
X285533Y195511D01*
X284411Y196633D01*
X283478Y197917D01*
X282758Y199330D01*
X282313Y200701D01*
X289601Y200701D01*
X289601Y193413D01*
X288230Y193858D01*
G37*
%LPD*%
%LPC*%
G36*
X344931Y281431D02*
X344931Y281431D01*
X344931Y288545D01*
X346688Y288545D01*
X352045Y283188D01*
X352045Y281431D01*
X344931Y281431D01*
G37*
%LPD*%
%LPC*%
G36*
X319531Y408431D02*
X319531Y408431D01*
X319531Y415545D01*
X321288Y415545D01*
X326645Y410188D01*
X326645Y408431D01*
X319531Y408431D01*
G37*
%LPD*%
%LPC*%
G36*
X167131Y281431D02*
X167131Y281431D01*
X167131Y288545D01*
X168888Y288545D01*
X174245Y283188D01*
X174245Y281431D01*
X167131Y281431D01*
G37*
%LPD*%
%LPC*%
G36*
X325881Y203961D02*
X325881Y203961D01*
X325881Y211075D01*
X327638Y211075D01*
X332995Y205718D01*
X332995Y203961D01*
X325881Y203961D01*
G37*
%LPD*%
%LPC*%
G36*
X333755Y281431D02*
X333755Y281431D01*
X333755Y283188D01*
X339112Y288545D01*
X340869Y288545D01*
X340869Y281431D01*
X333755Y281431D01*
G37*
%LPD*%
%LPC*%
G36*
X308355Y408431D02*
X308355Y408431D01*
X308355Y410188D01*
X313712Y415545D01*
X315469Y415545D01*
X315469Y408431D01*
X308355Y408431D01*
G37*
%LPD*%
%LPC*%
G36*
X314705Y203961D02*
X314705Y203961D01*
X314705Y205718D01*
X320062Y211075D01*
X321819Y211075D01*
X321819Y203961D01*
X314705Y203961D01*
G37*
%LPD*%
%LPC*%
G36*
X155955Y281431D02*
X155955Y281431D01*
X155955Y283188D01*
X161312Y288545D01*
X163069Y288545D01*
X163069Y281431D01*
X155955Y281431D01*
G37*
%LPD*%
%LPC*%
G36*
X167131Y117855D02*
X167131Y117855D01*
X167131Y124969D01*
X174245Y124969D01*
X174245Y123212D01*
X168888Y117855D01*
X167131Y117855D01*
G37*
%LPD*%
%LPC*%
G36*
X344931Y270255D02*
X344931Y270255D01*
X344931Y277369D01*
X352045Y277369D01*
X352045Y275612D01*
X346688Y270255D01*
X344931Y270255D01*
G37*
%LPD*%
%LPC*%
G36*
X167131Y270255D02*
X167131Y270255D01*
X167131Y277369D01*
X174245Y277369D01*
X174245Y275612D01*
X168888Y270255D01*
X167131Y270255D01*
G37*
%LPD*%
%LPC*%
G36*
X325881Y192785D02*
X325881Y192785D01*
X325881Y199899D01*
X332995Y199899D01*
X332995Y198142D01*
X327638Y192785D01*
X325881Y192785D01*
G37*
%LPD*%
%LPC*%
G36*
X319531Y397255D02*
X319531Y397255D01*
X319531Y404369D01*
X326645Y404369D01*
X326645Y402612D01*
X321288Y397255D01*
X319531Y397255D01*
G37*
%LPD*%
%LPC*%
G36*
X313712Y397255D02*
X313712Y397255D01*
X308355Y402612D01*
X308355Y404369D01*
X315469Y404369D01*
X315469Y397255D01*
X313712Y397255D01*
G37*
%LPD*%
%LPC*%
G36*
X339112Y270255D02*
X339112Y270255D01*
X333755Y275612D01*
X333755Y277369D01*
X340869Y277369D01*
X340869Y270255D01*
X339112Y270255D01*
G37*
%LPD*%
%LPC*%
G36*
X161312Y270255D02*
X161312Y270255D01*
X155955Y275612D01*
X155955Y277369D01*
X163069Y277369D01*
X163069Y270255D01*
X161312Y270255D01*
G37*
%LPD*%
%LPC*%
G36*
X320062Y192785D02*
X320062Y192785D01*
X314705Y198142D01*
X314705Y199899D01*
X321819Y199899D01*
X321819Y192785D01*
X320062Y192785D01*
G37*
%LPD*%
%LPC*%
G36*
X161312Y117855D02*
X161312Y117855D01*
X155955Y123212D01*
X155955Y124969D01*
X163069Y124969D01*
X163069Y117855D01*
X161312Y117855D01*
G37*
%LPD*%
%LPC*%
G36*
X114299Y50799D02*
X114299Y50799D01*
X114299Y50801D01*
X114301Y50801D01*
X114301Y50799D01*
X114299Y50799D01*
G37*
%LPD*%
%LPC*%
G36*
X469899Y444499D02*
X469899Y444499D01*
X469899Y444501D01*
X469901Y444501D01*
X469901Y444499D01*
X469899Y444499D01*
G37*
%LPD*%
%LPC*%
G36*
X304799Y25399D02*
X304799Y25399D01*
X304799Y25401D01*
X304801Y25401D01*
X304801Y25399D01*
X304799Y25399D01*
G37*
%LPD*%
%LPC*%
G36*
X266699Y25399D02*
X266699Y25399D01*
X266699Y25401D01*
X266701Y25401D01*
X266701Y25399D01*
X266699Y25399D01*
G37*
%LPD*%
%LPC*%
G36*
X25399Y444499D02*
X25399Y444499D01*
X25399Y444501D01*
X25401Y444501D01*
X25401Y444499D01*
X25399Y444499D01*
G37*
%LPD*%
D10*
X215900Y431800D03*
D11*
X215900Y406400D03*
X215900Y381000D03*
X215900Y355600D03*
X215900Y330200D03*
X215900Y304800D03*
X215900Y279400D03*
X215900Y254000D03*
X215900Y228600D03*
X215900Y203200D03*
X215900Y177800D03*
X215900Y152400D03*
X215900Y127000D03*
X215900Y101600D03*
X292100Y101600D03*
X292100Y127000D03*
X292100Y152400D03*
X292100Y177800D03*
X292100Y203200D03*
X292100Y228600D03*
X292100Y254000D03*
X292100Y279400D03*
X292100Y304800D03*
X292100Y330200D03*
X292100Y355600D03*
X292100Y381000D03*
X292100Y406400D03*
X292100Y431800D03*
D12*
X114300Y25400D03*
X114300Y50800D03*
X114300Y76200D03*
X114300Y101600D03*
D13*
X462280Y368300D02*
X477520Y368300D01*
X477520Y342900D02*
X462280Y342900D01*
X462280Y317500D02*
X477520Y317500D01*
X477520Y292100D02*
X462280Y292100D01*
X462280Y266700D02*
X477520Y266700D01*
X477520Y241300D02*
X462280Y241300D01*
X462280Y215900D02*
X477520Y215900D01*
X477520Y190500D02*
X462280Y190500D01*
X462280Y165100D02*
X477520Y165100D01*
X477520Y139700D02*
X462280Y139700D01*
X33020Y368300D02*
X17780Y368300D01*
X17780Y342900D02*
X33020Y342900D01*
X33020Y317500D02*
X17780Y317500D01*
X17780Y292100D02*
X33020Y292100D01*
X33020Y266700D02*
X17780Y266700D01*
X17780Y241300D02*
X33020Y241300D01*
X33020Y215900D02*
X17780Y215900D01*
X17780Y190500D02*
X33020Y190500D01*
X33020Y165100D02*
X17780Y165100D01*
X17780Y139700D02*
X33020Y139700D01*
D14*
X304800Y25400D03*
D12*
X330200Y25400D03*
X355600Y25400D03*
X381000Y25400D03*
X406400Y25400D03*
X431800Y25400D03*
D13*
X203200Y462280D02*
X203200Y477520D01*
X228600Y477520D02*
X228600Y462280D01*
X254000Y462280D02*
X254000Y477520D01*
X279400Y477520D02*
X279400Y462280D01*
X304800Y462280D02*
X304800Y477520D01*
X274320Y50800D02*
X259080Y50800D01*
X259080Y25400D02*
X274320Y25400D01*
D15*
X393700Y444500D03*
X469900Y444500D03*
X101600Y444500D03*
X25400Y444500D03*
D16*
X152400Y76200D03*
X152400Y51308D03*
X152400Y26162D03*
X185420Y26162D03*
X185420Y51308D03*
X185420Y76200D03*
D13*
X360680Y139700D02*
X375920Y139700D01*
X375920Y114300D02*
X360680Y114300D01*
D17*
X381000Y381000D03*
X381000Y279400D03*
X127000Y381000D03*
X127000Y279400D03*
D18*
X165100Y279400D03*
X165100Y381000D03*
X342900Y279400D03*
X342900Y381000D03*
D19*
X165100Y469900D03*
X139700Y469900D03*
D20*
X330200Y469900D03*
X355600Y469900D03*
D19*
X190500Y127000D03*
X165100Y127000D03*
D17*
X323850Y227330D03*
X323850Y201930D03*
X317500Y431800D03*
X317500Y406400D03*
D13*
X33020Y76200D02*
X17780Y76200D01*
X17780Y50800D02*
X33020Y50800D01*
X33020Y25400D02*
X17780Y25400D01*
D12*
X472440Y99060D03*
X472440Y73660D03*
X472440Y48260D03*
D14*
X472440Y22860D03*
D21*
X254000Y444500D02*
X279400Y469900D01*
X254000Y393700D02*
X215900Y355600D01*
X254000Y393700D02*
X254000Y444500D01*
X266700Y381000D02*
X215900Y330200D01*
X266700Y381000D02*
X266700Y431800D01*
X304800Y469900D01*
X139700Y368300D02*
X127000Y381000D01*
X139700Y368300D02*
X139700Y330200D01*
D22*
X139700Y330200D03*
X241300Y190500D03*
D21*
X241300Y266700D01*
D22*
X241300Y266700D03*
X114300Y127000D03*
D23*
X127000Y139700D01*
X203200Y139700D01*
X215900Y127000D01*
D22*
X279400Y114300D03*
D23*
X241300Y114300D01*
D22*
X241300Y114300D03*
D23*
X127000Y139700D02*
X127000Y279400D01*
D22*
X393700Y177800D03*
D23*
X381000Y190500D02*
X381000Y279400D01*
X381000Y190500D02*
X393700Y177800D01*
D21*
X330200Y177800D02*
X292100Y177800D01*
X330200Y177800D02*
X368300Y139700D01*
X330200Y152400D02*
X292100Y152400D01*
X330200Y152400D02*
X368300Y114300D01*
X292100Y101600D02*
X266700Y76200D01*
X215900Y76200D01*
D22*
X215900Y76200D03*
D23*
X127508Y76200D02*
X114300Y76200D01*
X127508Y76200D02*
X152400Y51308D01*
D22*
X63500Y177800D03*
D23*
X63500Y127000D01*
D22*
X63500Y127000D03*
X317500Y127000D03*
D23*
X317500Y63500D01*
D22*
X317500Y63500D03*
M02*
