G04 EAGLE Gerber RS-274X export*
G75*
%MOMM*%
%FSLAX34Y34*%
%LPD*%
%INTop Copper*%
%IPPOS*%
%AMOC8*
5,1,8,0,0,1.08239X$1,22.5*%
G01*
%ADD10R,1.508000X1.508000*%
%ADD11C,1.508000*%
%ADD12C,1.778000*%
%ADD13C,1.524000*%
%ADD14R,1.778000X1.778000*%
%ADD15C,2.032000*%
%ADD16C,1.397000*%
%ADD17P,1.429621X8X292.500000*%
%ADD18P,1.429621X8X112.500000*%
%ADD19P,1.429621X8X202.500000*%
%ADD20P,1.429621X8X22.500000*%
%ADD21C,0.254000*%
%ADD22C,0.756400*%
%ADD23C,0.406400*%


D10*
X215900Y431800D03*
D11*
X215900Y406400D03*
X215900Y381000D03*
X215900Y355600D03*
X215900Y330200D03*
X215900Y304800D03*
X215900Y279400D03*
X215900Y254000D03*
X215900Y228600D03*
X215900Y203200D03*
X215900Y177800D03*
X215900Y152400D03*
X215900Y127000D03*
X215900Y101600D03*
X292100Y101600D03*
X292100Y127000D03*
X292100Y152400D03*
X292100Y177800D03*
X292100Y203200D03*
X292100Y228600D03*
X292100Y254000D03*
X292100Y279400D03*
X292100Y304800D03*
X292100Y330200D03*
X292100Y355600D03*
X292100Y381000D03*
X292100Y406400D03*
X292100Y431800D03*
D12*
X114300Y25400D03*
X114300Y50800D03*
X114300Y76200D03*
X114300Y101600D03*
D13*
X462280Y368300D02*
X477520Y368300D01*
X477520Y342900D02*
X462280Y342900D01*
X462280Y317500D02*
X477520Y317500D01*
X477520Y292100D02*
X462280Y292100D01*
X462280Y266700D02*
X477520Y266700D01*
X477520Y241300D02*
X462280Y241300D01*
X462280Y215900D02*
X477520Y215900D01*
X477520Y190500D02*
X462280Y190500D01*
X462280Y165100D02*
X477520Y165100D01*
X477520Y139700D02*
X462280Y139700D01*
X33020Y368300D02*
X17780Y368300D01*
X17780Y342900D02*
X33020Y342900D01*
X33020Y317500D02*
X17780Y317500D01*
X17780Y292100D02*
X33020Y292100D01*
X33020Y266700D02*
X17780Y266700D01*
X17780Y241300D02*
X33020Y241300D01*
X33020Y215900D02*
X17780Y215900D01*
X17780Y190500D02*
X33020Y190500D01*
X33020Y165100D02*
X17780Y165100D01*
X17780Y139700D02*
X33020Y139700D01*
D14*
X304800Y25400D03*
D12*
X330200Y25400D03*
X355600Y25400D03*
X381000Y25400D03*
X406400Y25400D03*
X431800Y25400D03*
D13*
X203200Y462280D02*
X203200Y477520D01*
X228600Y477520D02*
X228600Y462280D01*
X254000Y462280D02*
X254000Y477520D01*
X279400Y477520D02*
X279400Y462280D01*
X304800Y462280D02*
X304800Y477520D01*
X274320Y50800D02*
X259080Y50800D01*
X259080Y25400D02*
X274320Y25400D01*
D15*
X393700Y444500D03*
X469900Y444500D03*
X101600Y444500D03*
X25400Y444500D03*
D16*
X152400Y76200D03*
X152400Y51308D03*
X152400Y26162D03*
X185420Y26162D03*
X185420Y51308D03*
X185420Y76200D03*
D13*
X360680Y139700D02*
X375920Y139700D01*
X375920Y114300D02*
X360680Y114300D01*
D17*
X381000Y381000D03*
X381000Y279400D03*
X127000Y381000D03*
X127000Y279400D03*
D18*
X165100Y279400D03*
X165100Y381000D03*
X342900Y279400D03*
X342900Y381000D03*
D19*
X165100Y469900D03*
X139700Y469900D03*
D20*
X330200Y469900D03*
X355600Y469900D03*
D19*
X190500Y127000D03*
X165100Y127000D03*
D17*
X323850Y227330D03*
X323850Y201930D03*
X317500Y431800D03*
X317500Y406400D03*
D13*
X33020Y76200D02*
X17780Y76200D01*
X17780Y50800D02*
X33020Y50800D01*
X33020Y25400D02*
X17780Y25400D01*
D12*
X472440Y99060D03*
X472440Y73660D03*
X472440Y48260D03*
D14*
X472440Y22860D03*
D21*
X215900Y457200D02*
X203200Y469900D01*
X215900Y457200D02*
X215900Y431800D01*
X381000Y431800D02*
X381000Y381000D01*
X381000Y431800D02*
X393700Y444500D01*
X364998Y473202D01*
X364998Y473793D01*
X350857Y487934D01*
X221234Y487934D02*
X203200Y469900D01*
X221234Y487934D02*
X350857Y487934D01*
X177800Y368300D02*
X25400Y368300D01*
X177800Y368300D02*
X215900Y406400D01*
X190500Y355600D02*
X38100Y355600D01*
X25400Y342900D01*
X190500Y355600D02*
X215900Y381000D01*
X177800Y342900D02*
X50800Y342900D01*
X25400Y317500D01*
X177800Y342900D02*
X215900Y304800D01*
X292100Y203200D02*
X322580Y203200D01*
X323850Y201930D01*
X114300Y203200D02*
X25400Y292100D01*
X114300Y203200D02*
X215900Y203200D01*
X127000Y419100D02*
X101600Y444500D01*
X127000Y419100D02*
X127000Y381000D01*
D22*
X139700Y330200D03*
D21*
X139700Y266700D01*
X190500Y215900D01*
X226234Y207481D02*
X226234Y198920D01*
X215900Y188586D02*
X215900Y177800D01*
X215900Y188586D02*
X226234Y198920D01*
X226234Y207481D02*
X217815Y215900D01*
X190500Y215900D01*
X241300Y190500D02*
X241300Y177800D01*
X215900Y152400D01*
D22*
X241300Y190500D03*
X241300Y266700D03*
D21*
X241300Y395615D02*
X217815Y419100D01*
X190500Y419100D01*
X165100Y444500D01*
X165100Y469900D01*
X241300Y395615D02*
X241300Y266700D01*
D23*
X88900Y50800D02*
X25400Y50800D01*
X88900Y50800D02*
X114300Y25400D01*
D21*
X292100Y431800D02*
X317500Y431800D01*
X215900Y127000D02*
X190500Y127000D01*
X330200Y444500D02*
X330200Y469900D01*
X330200Y444500D02*
X317500Y431800D01*
X292100Y431800D02*
X266700Y431800D01*
X228600Y469900D01*
D23*
X127000Y38100D02*
X114300Y25400D01*
X127000Y38100D02*
X127000Y114300D01*
X114300Y127000D01*
X88900Y127000D01*
X25400Y190500D01*
D22*
X114300Y127000D03*
D23*
X408940Y48260D02*
X472440Y48260D01*
X355600Y101600D02*
X330200Y101600D01*
X317500Y114300D01*
X279400Y114300D01*
D22*
X279400Y114300D03*
X241300Y114300D03*
D23*
X228600Y114300D01*
X215900Y127000D01*
X355600Y101600D02*
X408940Y48260D01*
X472440Y48260D02*
X472440Y56059D01*
X469900Y165100D02*
X406400Y165100D01*
X393700Y177800D01*
D22*
X393700Y177800D03*
D23*
X279400Y114300D02*
X279400Y419100D01*
X292100Y431800D01*
X382975Y177800D02*
X393700Y177800D01*
X382975Y177800D02*
X319475Y114300D01*
X317500Y114300D01*
D21*
X152400Y139700D02*
X25400Y266700D01*
X152400Y139700D02*
X152400Y114300D01*
X165100Y101600D01*
X215900Y101600D01*
X292100Y381000D02*
X304800Y381000D01*
X317500Y368300D01*
X469900Y368300D01*
X304800Y355600D02*
X292100Y355600D01*
X304800Y355600D02*
X317500Y342900D01*
X469900Y342900D01*
X304800Y330200D02*
X292100Y330200D01*
X304800Y330200D02*
X317500Y317500D01*
X469900Y317500D01*
X304800Y304800D02*
X292100Y304800D01*
X304800Y304800D02*
X317500Y292100D01*
X469900Y292100D01*
X304800Y279400D02*
X292100Y279400D01*
X304800Y279400D02*
X317500Y266700D01*
X469900Y266700D01*
X304800Y254000D02*
X292100Y254000D01*
X304800Y254000D02*
X317500Y241300D01*
X469900Y241300D01*
X322580Y228600D02*
X292100Y228600D01*
X322580Y228600D02*
X323850Y227330D01*
X406400Y101600D02*
X469900Y101600D01*
X406400Y101600D02*
X368300Y139700D01*
X469900Y101600D02*
X472440Y99060D01*
X469900Y76200D02*
X406400Y76200D01*
X368300Y114300D01*
X469900Y76200D02*
X472440Y73660D01*
X381000Y215900D02*
X292100Y127000D01*
X381000Y215900D02*
X469900Y215900D01*
D22*
X215900Y76200D03*
D21*
X203200Y88900D01*
X165100Y88900D01*
X139700Y114300D01*
X139700Y127000D01*
X25400Y241300D01*
D23*
X25400Y76200D02*
X63500Y76200D01*
X114300Y76200D01*
X152400Y51308D02*
X185420Y51308D01*
X63500Y177800D02*
X25400Y215900D01*
D22*
X63500Y177800D03*
X63500Y127000D03*
D23*
X63500Y76200D01*
X317500Y127000D02*
X381000Y190500D01*
D22*
X317500Y127000D03*
X317500Y63500D03*
D23*
X381000Y190500D02*
X469900Y190500D01*
X202409Y51308D02*
X185420Y51308D01*
X202409Y51308D02*
X214093Y39624D01*
X293624Y39624D01*
X317500Y63500D01*
D21*
X254000Y190500D02*
X215900Y228600D01*
X254000Y190500D02*
X254000Y101600D01*
X279400Y76200D01*
X330200Y76200D01*
X381000Y25400D01*
X266700Y228600D02*
X215900Y279400D01*
X266700Y228600D02*
X266700Y101600D01*
X279400Y88900D01*
X342900Y88900D01*
X406400Y25400D01*
D23*
X355600Y25400D02*
X347801Y25400D01*
X335355Y12954D01*
X198628Y12954D01*
X185420Y26162D01*
X152400Y26162D01*
X152400Y76200D02*
X185420Y76200D01*
X210820Y50800D01*
X266700Y50800D01*
D21*
X165100Y381000D02*
X139700Y406400D01*
X139700Y469900D01*
X342900Y457200D02*
X342900Y381000D01*
X342900Y457200D02*
X355600Y469900D01*
M02*
