G04 EAGLE Gerber RS-274X export*
G75*
%MOMM*%
%FSLAX34Y34*%
%LPD*%
%INSoldermask Bottom*%
%IPPOS*%
%AMOC8*
5,1,8,0,0,1.08239X$1,22.5*%
G01*
%ADD10R,1.711200X1.711200*%
%ADD11C,1.711200*%
%ADD12C,1.981200*%
%ADD13C,1.727200*%
%ADD14R,1.981200X1.981200*%
%ADD15C,2.235200*%
%ADD16C,1.600200*%
%ADD17P,1.649562X8X292.500000*%
%ADD18P,1.649562X8X112.500000*%
%ADD19P,1.649562X8X202.500000*%
%ADD20P,1.649562X8X22.500000*%
%ADD21C,0.959600*%


D10*
X215900Y431800D03*
D11*
X215900Y406400D03*
X215900Y381000D03*
X215900Y355600D03*
X215900Y330200D03*
X215900Y304800D03*
X215900Y279400D03*
X215900Y254000D03*
X215900Y228600D03*
X215900Y203200D03*
X215900Y177800D03*
X215900Y152400D03*
X215900Y127000D03*
X215900Y101600D03*
X292100Y101600D03*
X292100Y127000D03*
X292100Y152400D03*
X292100Y177800D03*
X292100Y203200D03*
X292100Y228600D03*
X292100Y254000D03*
X292100Y279400D03*
X292100Y304800D03*
X292100Y330200D03*
X292100Y355600D03*
X292100Y381000D03*
X292100Y406400D03*
X292100Y431800D03*
D12*
X114300Y25400D03*
X114300Y50800D03*
X114300Y76200D03*
X114300Y101600D03*
D13*
X462280Y368300D02*
X477520Y368300D01*
X477520Y342900D02*
X462280Y342900D01*
X462280Y317500D02*
X477520Y317500D01*
X477520Y292100D02*
X462280Y292100D01*
X462280Y266700D02*
X477520Y266700D01*
X477520Y241300D02*
X462280Y241300D01*
X462280Y215900D02*
X477520Y215900D01*
X477520Y190500D02*
X462280Y190500D01*
X462280Y165100D02*
X477520Y165100D01*
X477520Y139700D02*
X462280Y139700D01*
X33020Y368300D02*
X17780Y368300D01*
X17780Y342900D02*
X33020Y342900D01*
X33020Y317500D02*
X17780Y317500D01*
X17780Y292100D02*
X33020Y292100D01*
X33020Y266700D02*
X17780Y266700D01*
X17780Y241300D02*
X33020Y241300D01*
X33020Y215900D02*
X17780Y215900D01*
X17780Y190500D02*
X33020Y190500D01*
X33020Y165100D02*
X17780Y165100D01*
X17780Y139700D02*
X33020Y139700D01*
D14*
X304800Y25400D03*
D12*
X330200Y25400D03*
X355600Y25400D03*
X381000Y25400D03*
X406400Y25400D03*
X431800Y25400D03*
D13*
X203200Y462280D02*
X203200Y477520D01*
X228600Y477520D02*
X228600Y462280D01*
X254000Y462280D02*
X254000Y477520D01*
X279400Y477520D02*
X279400Y462280D01*
X304800Y462280D02*
X304800Y477520D01*
X274320Y50800D02*
X259080Y50800D01*
X259080Y25400D02*
X274320Y25400D01*
D15*
X393700Y444500D03*
X469900Y444500D03*
X101600Y444500D03*
X25400Y444500D03*
D16*
X152400Y76200D03*
X152400Y51308D03*
X152400Y26162D03*
X185420Y26162D03*
X185420Y51308D03*
X185420Y76200D03*
D13*
X360680Y139700D02*
X375920Y139700D01*
X375920Y114300D02*
X360680Y114300D01*
D17*
X381000Y381000D03*
X381000Y279400D03*
X127000Y381000D03*
X127000Y279400D03*
D18*
X165100Y279400D03*
X165100Y381000D03*
X342900Y279400D03*
X342900Y381000D03*
D19*
X165100Y469900D03*
X139700Y469900D03*
D20*
X330200Y469900D03*
X355600Y469900D03*
D19*
X190500Y127000D03*
X165100Y127000D03*
D17*
X323850Y227330D03*
X323850Y201930D03*
X317500Y431800D03*
X317500Y406400D03*
D13*
X33020Y76200D02*
X17780Y76200D01*
X17780Y50800D02*
X33020Y50800D01*
X33020Y25400D02*
X17780Y25400D01*
D12*
X472440Y99060D03*
X472440Y73660D03*
X472440Y48260D03*
D14*
X472440Y22860D03*
D21*
X139700Y330200D03*
X241300Y190500D03*
X241300Y266700D03*
X114300Y127000D03*
X279400Y114300D03*
X241300Y114300D03*
X393700Y177800D03*
X215900Y76200D03*
X63500Y177800D03*
X63500Y127000D03*
X317500Y127000D03*
X317500Y63500D03*
M02*
