M48
;GenerationSoftware,Autodesk,EAGLE,9.6.2*%
;CreationDate,2022-04-12T16:07:04Z*%
FMAT,2
ICI,OFF
METRIC,TZ,000.000
T5C0.350
T4C0.813
T3C0.889
T2C1.000
T1C1.016
%
G90
M71
T1
X46990Y29210
X43180Y2540
X40640Y2540
X38100Y2540
X35560Y2540
X33020Y2540
X30480Y2540
X2540Y13970
X2540Y16510
X2540Y19050
X2540Y21590
X2540Y24130
X46990Y26670
X46990Y24130
X2540Y29210
X46990Y21590
X46990Y19050
X46990Y16510
X46990Y13970
X2540Y36830
X2540Y34290
X2540Y31750
X11430Y2540
X11430Y5080
X11430Y7620
X11430Y10160
X46990Y36830
X46990Y34290
X2540Y26670
X46990Y31750
X20320Y46990
X22860Y46990
X25400Y46990
X27940Y46990
X30480Y46990
X26670Y5080
X26670Y2540
X39370Y44450
X46990Y44450
X10160Y44450
X2540Y44450
X47244Y2286
X36830Y13970
X36830Y11430
X2540Y7620
X2540Y5080
X2540Y2540
X47244Y9906
X47244Y7366
X47244Y4826
T2
X29210Y27940
X29210Y30480
X29210Y33020
X29210Y35560
X29210Y38100
X29210Y40640
X29210Y43180
X29210Y15240
X21590Y38100
X21590Y43180
X21590Y40640
X21590Y35560
X21590Y33020
X21590Y30480
X21590Y27940
X21590Y25400
X21590Y22860
X21590Y20320
X21590Y17780
X21590Y15240
X21590Y12700
X21590Y10160
X29210Y10160
X29210Y12700
X29210Y17780
X29210Y20320
X29210Y22860
X29210Y25400
T3
X18542Y2616
X18542Y5131
X18542Y7620
X15240Y7620
X15240Y5131
X15240Y2616
T4
X34290Y38100
X32385Y22733
X32385Y20193
X31750Y43180
X31750Y40640
X38100Y38100
X38100Y27940
X12700Y38100
X12700Y27940
X16510Y27940
X16510Y38100
X34290Y27940
X33020Y46990
X16510Y46990
X13970Y46990
X35560Y46990
X19050Y12700
X16510Y12700
T5
X11430Y12700
X24130Y26670
X24130Y19050
X13970Y33020
X31750Y6350
X31750Y12700
X6350Y12700
X6350Y17780
X21590Y7620
X39370Y17780
X24130Y11430
X27940Y11430
M30